<?xml version="1.0" encoding="UTF-8" standalone="no"?>
<!-- Created with Inkscape (http://www.inkscape.org/) -->

<svg
   xmlns:dc="http://purl.org/dc/elements/1.1/"
   xmlns:cc="http://creativecommons.org/ns#"
   xmlns:rdf="http://www.w3.org/1999/02/22-rdf-syntax-ns#"
   xmlns:svg="http://www.w3.org/2000/svg"
   xmlns="http://www.w3.org/2000/svg"
   xmlns:sodipodi="http://sodipodi.sourceforge.net/DTD/sodipodi-0.dtd"
   xmlns:inkscape="http://www.inkscape.org/namespaces/inkscape"
   width="124"
   height="52"
   viewBox="0 0 32.808331 13.758333"
   id="svg2"
   version="1.1"
   inkscape:version="0.92.3 (2405546, 2018-03-11)"
   sodipodi:docname="configuration-icons.svg">
  <defs
     id="defs4">
    <style
       id="current-color-scheme"
       type="text/css">
          .ColorScheme-Text {
          }
          .ColorScheme-Background{
          }
          .ColorScheme-Highlight{
          }
          .ColorScheme-ViewText {
          }
          .ColorScheme-ViewBackground{
          }
          .ColorScheme-ViewHover {
          }
          .ColorScheme-ViewFocus{
          }
          .ColorScheme-ButtonText {
          }
          .ColorScheme-ButtonBackground{
          }
          .ColorScheme-ButtonHover {
          }
          .ColorScheme-ButtonFocus{
          }
      </style>
    <inkscape:perspective
       id="perspective4146"
       inkscape:persp3d-origin="11.999999 : 7.9999997 : 1"
       inkscape:vp_z="23.999998 : 11.999999 : 1"
       inkscape:vp_y="0 : 999.99995 : 0"
       inkscape:vp_x="0 : 11.999999 : 1"
       sodipodi:type="inkscape:persp3d" />
    <inkscape:perspective
       id="perspective4090"
       inkscape:persp3d-origin="11.999999 : 7.9999997 : 1"
       inkscape:vp_z="23.999998 : 11.999999 : 1"
       inkscape:vp_y="0 : 999.99995 : 0"
       inkscape:vp_x="0 : 11.999999 : 1"
       sodipodi:type="inkscape:persp3d" />
  </defs>
  <sodipodi:namedview
     id="base"
     pagecolor="#ffffff"
     bordercolor="#000000"
     borderopacity="1"
     inkscape:pageopacity="0"
     inkscape:pageshadow="2"
     inkscape:zoom="10.5"
     inkscape:cx="9.083"
     inkscape:cy="-12.16"
     inkscape:document-units="px"
     inkscape:current-layer="layer1"
     showgrid="false"
     units="px"
     inkscape:showpageshadow="false"
     borderlayer="false"
     inkscape:window-width="1433"
     inkscape:window-height="816"
     inkscape:window-x="126"
     inkscape:window-y="199"
     inkscape:window-maximized="0"
     fit-margin-top="0"
     fit-margin-left="0"
     fit-margin-right="0"
     fit-margin-bottom="0"
     inkscape:pagecheckerboard="true"
     inkscape:lockguides="false"
     showguides="true"
     inkscape:guide-bbox="true"
     inkscape:snap-global="true"
     inkscape:snap-bbox="true"
     inkscape:bbox-nodes="true"
     inkscape:bbox-paths="true">
    <inkscape:grid
       type="xygrid"
       id="grid4160"
       empspacing="2"
       originx="0.52916665"
       originy="-33.866711" />
  </sodipodi:namedview>
  <metadata
     id="metadata7">
    <rdf:RDF>
      <cc:Work
         rdf:about="">
        <dc:format>image/svg+xml</dc:format>
        <dc:type
           rdf:resource="http://purl.org/dc/dcmitype/StillImage" />
        <dc:title />
      </cc:Work>
    </rdf:RDF>
  </metadata>
  <g
     inkscape:label="Capa 1"
     inkscape:groupmode="layer"
     id="layer1"
     transform="translate(0.5291667,-249.37493)">
    <g
       id="move">
      <rect
         style="opacity:1;fill:none;fill-opacity:1;stroke:none"
         id="rect4213"
         width="4.2333336"
         height="4.2333322"
         x="13.758335"
         y="249.37497" />
      <rect
         y="249.90414"
         x="14.287501"
         height="3.1749992"
         width="3.1750002"
         id="rect4215"
         style="opacity:1;fill:none;fill-opacity:1;stroke:none" />
      <path
         id="path4404"
         d="m 15.875001,249.90414 -0.529166,0.79375 1.058333,0 -0.529167,-0.79375 z m -0.79375,1.05833 -0.79375,0.52917 0.79375,0.52916 0,-1.05833 z m 1.5875,0 0,1.05833 0.79375,-0.52916 -0.79375,-0.52917 z m -0.79375,0.26458 c -0.146125,0 -0.264583,0.11846 -0.264583,0.26459 0,0.14612 0.118458,0.26458 0.264583,0.26458 0.146126,0 0.264584,-0.11846 0.264584,-0.26458 0,-0.14613 -0.118458,-0.26459 -0.264584,-0.26459 z m -0.529166,1.05834 0.529166,0.79375 0.529167,-0.79375 -1.058333,0 z"
         style="fill:currentColor;fill-opacity:1;stroke:none"
         inkscape:connector-curvature="0"
         class="ColorScheme-Text" />
    </g>
    <g
       id="size-vertical">
      <rect
         y="249.37497"
         x="18.520834"
         height="4.2333322"
         width="4.2333336"
         id="rect4257"
         style="opacity:1;fill:none;fill-opacity:1;stroke:none" />
      <rect
         style="opacity:1;fill:none;fill-opacity:1;stroke:none"
         id="rect4259"
         width="3.1750002"
         height="3.1749992"
         x="19.050001"
         y="249.90414" />
      <path
         sodipodi:nodetypes="ccccssssscccc"
         inkscape:connector-curvature="0"
         style="fill:currentColor;fill-opacity:1;stroke:none"
         d="m 20.637501,249.90414 -0.529166,0.79375 1.058333,0 z m 0,1.32291 c -0.146125,0 -0.264583,0.11846 -0.264583,0.26459 0,0.14612 0.118458,0.26458 0.264583,0.26458 0.146126,0 0.264584,-0.11846 0.264584,-0.26458 0,-0.14613 -0.118458,-0.26459 -0.264584,-0.26459 z m -0.529166,1.05834 0.529166,0.79375 0.529167,-0.79375 z"
         id="path4263"
         class="ColorScheme-Text" />
    </g>
    <g
       id="size-horizontal">
      <rect
         style="opacity:1;fill:none;fill-opacity:1;stroke:none"
         id="rect4265"
         width="4.2333336"
         height="4.2333322"
         x="23.283333"
         y="249.37497" />
      <rect
         y="249.90414"
         x="23.8125"
         height="3.1749992"
         width="3.1750002"
         id="rect4267"
         style="opacity:1;fill:none;fill-opacity:1;stroke:none" />
      <path
         id="path4269"
         d="m 26.987502,251.49164 -0.79375,-0.52917 0,1.05834 z m -1.32291,0 c 0,-0.14613 -0.11846,-0.26458 -0.26459,-0.26458 -0.14612,0 -0.26458,0.11845 -0.26458,0.26458 0,0.14613 0.11846,0.26458 0.26458,0.26458 0.14613,0 0.26459,-0.11845 0.26459,-0.26458 z m -1.05834,-0.52917 -0.79375,0.52917 0.79375,0.52917 z"
         style="fill:currentColor;fill-opacity:1;stroke:none"
         inkscape:connector-curvature="0"
         sodipodi:nodetypes="ccccssssscccc"
         class="ColorScheme-Text" />
    </g>
    <g
       id="size-diagonal-tl2br">
      <rect
         style="opacity:1;fill:none;fill-opacity:1;stroke:none"
         id="rect4308"
         width="4.2333336"
         height="4.2333322"
         x="-0.52916676"
         y="254.13741" />
      <rect
         y="254.66658"
         x="8.4756147e-07"
         height="3.1749992"
         width="3.1750002"
         id="rect4310"
         style="opacity:1;fill:none;fill-opacity:1;stroke:none" />
      <path
         style="fill:currentColor;fill-opacity:1;stroke:none"
         d="m 2.3812496,257.84168 0,-0.26458 0.6066819,0 -0.8712649,-0.87127 0.187068,-0.18706 0.8712649,0.87126 0,-0.60668 0.264584,0 0,1.05833 -0.264584,0 -0.7937499,0 z"
         id="path4312"
         inkscape:connector-curvature="0"
         class="ColorScheme-Text" />
      <path
         style="fill:currentColor;fill-opacity:1;stroke:none"
         d="m 3.4395835,254.66667 0,0.26459 0,0.26458 0,0.79375 0,0.26458 -0.264584,0 0,-0.26458 0,-0.79375 0,-0.26458 -0.2645829,0 -1.058333,0 -0.529167,0 0,-0.26459 0.529167,0 1.058333,0 0.2645829,0 0.264584,0 z m -3.4395839,1.5875 0,0.26459 0,0.79375 0,0.26458 0.529167,0 0.79375,0 0.529167,0 0,0.26458 -0.529167,0 -0.79375,0 -0.529167,0 -0.264583,0 0,-0.52916 0,-0.79375 0,-0.26459 0.264583,0 z"
         id="path4314"
         inkscape:connector-curvature="0"
         class="ColorScheme-Text" />
      <path
         inkscape:connector-curvature="0"
         id="path4316"
         d="m 0.7937506,254.66668 0,0.26458 -0.606682,0 0.871265,0.87127 -0.187068,0.18706 -0.871265,-0.87126 0,0.60668 -0.264584,0 0,-1.05833 0.264584,0 0.79375,0 z"
         style="fill:currentColor;fill-opacity:1;stroke:none"
         class="ColorScheme-Text" />
    </g>
    <g
       id="maximize">
      <rect
         y="254.13741"
         x="4.2333331"
         height="4.2333322"
         width="4.2333336"
         id="rect4318"
         style="opacity:1;fill:none;fill-opacity:1;stroke:none" />
      <rect
         style="opacity:1;fill:none;fill-opacity:1;stroke:none"
         id="rect4320"
         width="3.1750002"
         height="3.1749992"
         x="4.7625008"
         y="254.66658" />
      <path
         inkscape:connector-curvature="0"
         id="path4322"
         d="m 7.1437499,254.66667 0,0.26458 0.6066819,0 -0.8712649,0.87127 0.187068,0.18706 0.8712649,-0.87126 0,0.60668 0.264584,0 0,-1.05833 -0.264584,0 -0.7937499,0 z"
         style="fill:currentColor;fill-opacity:1;stroke:none"
         class="ColorScheme-Text" />
      <path
         id="path4324"
         transform="matrix(0.26458333,0,0,0.26458334,-0.52916771,249.37497)"
         d="m 19,20 0,2 0,3 0,1 0,5 0,1 1,0 5,0 2,0 4,0 1,0 1,0 0,-1 0,-1 0,-3 0,-1 -1,0 0,1 0,3 0,1 -1,0 -4,0 -2,0 -5,0 0,-5 0,-1 0,-3 0,-1 2,0 3,0 2,0 0,-1 -2,0 -3,0 -2,0 -1,0 z"
         style="fill:currentColor;fill-opacity:1;stroke:none"
         inkscape:connector-curvature="0"
         class="ColorScheme-Text" />
    </g>
    <g
       id="unmaximize">
      <rect
         style="opacity:1;fill:none;fill-opacity:1;stroke:none"
         id="rect4333"
         width="4.2333336"
         height="4.2333322"
         x="8.9958324"
         y="254.13741" />
      <rect
         y="254.66658"
         x="9.5249996"
         height="3.1749992"
         width="3.1750002"
         id="rect4335"
         style="opacity:1;fill:none;fill-opacity:1;stroke:none" />
      <path
         style="fill:currentColor;fill-opacity:1;stroke:none"
         d="m 12.700003,255.98958 0,-0.26458 -0.606682,0 0.871265,-0.87127 -0.187068,-0.18706 -0.871266,0.87126 0,-0.60668 -0.264584,0 0,1.05833 0.264584,0 0.793751,0 z"
         id="path4337"
         inkscape:connector-curvature="0"
         class="ColorScheme-Text" />
      <path
         inkscape:connector-curvature="0"
         style="fill:currentColor;fill-opacity:1;stroke:none"
         d="m 9.2604158,254.66664 0,0.52916 0,0.79375 0,0.26459 0,1.32291 0,0.26459 0.2645833,0 1.3229169,0 0.529167,0 1.058334,0 0.264584,0 0.264583,0 0,-0.26459 0,-0.26458 0,-0.79375 0,-0.26458 -0.264583,0 0,0.26458 0,0.79375 0,0.26458 -0.264584,0 -1.058334,0 -0.529167,0 -1.3229169,0 0,-1.32291 0,-0.26459 0,-0.79375 0,-0.26458 0.5291669,0 0.79375,0 0.529167,0 0,-0.26458 -0.529167,0 -0.79375,0 -0.5291669,0 -0.2645833,0 z"
         id="path4339"
         class="ColorScheme-Text" />
    </g>
    <g
       id="status">
      <rect
         y="254.13741"
         x="13.758333"
         height="4.2333322"
         width="4.2333336"
         id="rect4341"
         style="opacity:1;fill:none;fill-opacity:1;stroke:none" />
      <rect
         style="opacity:1;fill:none;fill-opacity:1;stroke:none"
         id="rect4343"
         width="3.1750002"
         height="3.1749992"
         x="14.2875"
         y="254.66658" />
      <g
         inkscape:label="Capa 1"
         id="layer1-70"
         transform="matrix(0.26458333,0,0,0.26458334,-97.820237,113.43444)">
        <path
           sodipodi:nodetypes="cccccccccccccccccccccccccccccccc"
           inkscape:connector-curvature="0"
           id="rect4083"
           transform="translate(367.71428,513.79097)"
           d="m 56,20 0,3 0,3 0,1 0,5 1,0 3.970703,0 L 68,32 68,31 68,21 68,20 63.148438,20 57,20 Z m 1,3 7.345703,0 -1.716797,6.408203 L 60.662109,26 60.369141,26 57.505859,26 57,26 Z M 65.382812,23 67,23 l 0,8 -3.761719,0 z M 57,27 60.083984,27 62.392578,31 57,31 Z"
           style="fill:currentColor;fill-opacity:1;stroke:none"
           class="ColorScheme-Text" />
      </g>
    </g>
    <g
       id="collapse">
      <rect
         y="254.13741"
         x="23.283337"
         height="4.2333322"
         width="4.2333336"
         id="rect4397"
         style="opacity:1;fill:none;fill-opacity:1;stroke:none" />
      <rect
         style="opacity:1;fill:none;fill-opacity:1;stroke:none"
         id="rect4399"
         width="3.1750002"
         height="3.1749992"
         x="23.812504"
         y="254.66658" />
      <path
         inkscape:connector-curvature="0"
         style="opacity:1;fill:currentColor;fill-opacity:1;stroke:none"
         d="m 24.870835,254.66664 0.529166,0.52916 0.529167,-0.52916 -1.058333,0 z m -1.058334,1.32291 0,0.52917 3.175,0 0,-0.52917 -3.175,0 z m 1.5875,1.32292 -0.529166,0.52917 1.058333,0 -0.529167,-0.52917 z"
         id="path4401"
         class="ColorScheme-Text" />
    </g>
    <g
       id="return-to-source">
      <rect
         style="opacity:1;fill:none;fill-opacity:1;stroke:none"
         id="rect4380"
         width="4.2333336"
         height="4.2333322"
         x="18.520832"
         y="254.13741" />
      <rect
         y="254.66658"
         x="19.049999"
         height="3.1749992"
         width="3.1750002"
         id="rect4382"
         style="opacity:1;fill:none;fill-opacity:1;stroke:none" />
      <path
         id="rect4403"
         transform="matrix(0.26458333,0,0,0.26458334,-0.52916771,249.37497)"
         d="m 74,20 0,12 12,0 0,-12 -12,0 z m 4,1 4,0 -2,2 -2,-2 z m -3,4 10,0 0,2 -10,0 0,-2 z m 5,4 2,2 -4,0 2,-2 z"
         style="opacity:1;fill:currentColor;fill-opacity:1;stroke:none"
         inkscape:connector-curvature="0"
         class="ColorScheme-Text" />
    </g>
    <g
       id="restore">
      <rect
         style="opacity:1;fill:none;fill-opacity:1;stroke:none"
         id="rect4414"
         width="4.2333336"
         height="4.2333322"
         x="28.045841"
         y="254.13741" />
      <rect
         y="254.66658"
         x="28.575008"
         height="3.1749992"
         width="3.1750002"
         id="rect4416"
         style="opacity:1;fill:none;fill-opacity:1;stroke:none" />
      <path
         sodipodi:nodetypes="ccccccccccccc"
         id="path4418"
         d="m 29.633338,255.1958 0.529166,-0.52916 0.529167,0.52916 z m -1.058334,0.79375 0,0.52917 3.175,0 0,-0.52917 z m 1.5875,1.85209 -0.529166,-0.52917 1.058333,0 z"
         style="opacity:1;fill:currentColor;fill-opacity:1;stroke:none"
         inkscape:connector-curvature="0"
         class="ColorScheme-Text" />
    </g>
    <g
       id="help">
      <rect
         y="258.89993"
         x="-0.52916676"
         height="4.2333322"
         width="4.2333336"
         id="rect4420"
         style="opacity:1;fill:none;fill-opacity:1;stroke:none" />
      <rect
         style="opacity:1;fill:none;fill-opacity:1;stroke:none"
         id="rect4422"
         width="3.1750002"
         height="3.1749992"
         x="8.4756147e-07"
         y="259.42911" />
      <path
         inkscape:connector-curvature="0"
         style="opacity:1;fill:currentColor;fill-opacity:1;stroke:none;stroke-opacity:1"
         d="M 1.5875009,259.42911 A 1.5875,1.5875001 0 0 0 9.929289e-7,261.01661 1.5875,1.5875001 0 0 0 1.5875009,262.60411 a 1.5875,1.5875001 0 0 0 1.5875,-1.5875 1.5875,1.5875001 0 0 0 -1.5875,-1.5875 z M 9.929289e-7,259.69369 l 0,0.52917 0.5291665970711,-0.52917 -0.5291665970711,0 z m 1.5874999070711,0 a 1.3229166,1.3229167 0 0 1 0.6325195,0.16123 l -0.4025594,0.40256 a 0.79374998,0.79375003 0 0 0 -0.2299601,-0.0346 0.79374998,0.79375003 0 0 0 -0.2299601,0.0346 l -0.40152591,-0.40153 a 1.3229166,1.3229167 0 0 1 0.63148601,-0.16226 z m 1.0583333,0 0.5291667,0.52917 0,-0.52917 -0.5291667,0 z m -2.22001941,0.6904 0.4025594,0.40256 a 0.79374998,0.79375003 0 0 0 -0.034623,0.22996 0.79374998,0.79375003 0 0 0 0.034623,0.22996 l -0.4015259,0.40152 a 1.3229166,1.3229167 0 0 1 -0.162264,-0.63148 1.3229166,1.3229167 0 0 1 0.1612305,-0.63252 z m 2.32233881,10e-4 a 1.3229166,1.3229167 0 0 1 0.1622639,0.63149 1.3229166,1.3229167 0 0 1 -0.1612304,0.63252 l -0.4025593,-0.40253 a 0.79374998,0.79375003 0 0 0 0.034623,-0.22996 0.79374998,0.79375003 0 0 0 -0.034623,-0.22996 l 0.4015258,-0.40153 z m -1.1606527,0.10232 a 0.52916665,0.52916669 0 0 1 0.5291667,0.52917 0.52916665,0.52916669 0 0 1 -0.5291667,0.52916 0.52916665,0.52916669 0 0 1 -0.5291667,-0.52916 0.52916665,0.52916669 0 0 1 0.5291667,-0.52917 z m -0.2299601,1.28829 a 0.79374998,0.79375003 0 0 0 0.2299601,0.0346 0.79374998,0.79375003 0 0 0 0.2299601,-0.0346 l 0.4015259,0.40153 a 1.3229166,1.3229167 0 0 1 -0.631486,0.16226 1.3229166,1.3229167 0 0 1 -0.63251951,-0.16123 L 1.3575408,261.7757 Z M 9.929289e-7,261.8103 l 0,0.52916 0.5291665970711,0 L 9.929289e-7,261.8103 Z m 3.1749999070711,0 -0.5291667,0.52916 0.5291667,0 0,-0.52916 z"
         id="path59"
         class="ColorScheme-Text" />
    </g>
    <g
       id="add">
      <rect
         y="258.89993"
         x="8.9958324"
         height="4.2333322"
         width="4.2333336"
         id="rect4488"
         style="opacity:1;fill:none;fill-opacity:1;stroke:none" />
      <rect
         style="opacity:1;fill:none;fill-opacity:1;stroke:none"
         id="rect4490"
         width="3.1750002"
         height="3.1749992"
         x="9.5249996"
         y="259.42911" />
      <path
         style="opacity:1;fill:currentColor;fill-opacity:1;stroke:none"
         d="M 43 38 L 43 43 L 38 43 L 38 45 L 43 45 L 43 50 L 45 50 L 45 45 L 50 45 L 50 43 L 45 43 L 45 38 L 43 38 z "
         transform="matrix(0.26458333,0,0,0.26458333,-0.52916771,249.37493)"
         id="rect4498"
         class="ColorScheme-Text" />
    </g>
    <g
       id="remove">
      <rect
         style="opacity:1;fill:none;fill-opacity:1;stroke:none"
         id="rect4502"
         width="4.2333336"
         height="4.2333322"
         x="13.758328"
         y="258.89993" />
      <rect
         y="259.42911"
         x="14.287497"
         height="3.1749992"
         width="3.1750002"
         id="rect4504"
         style="opacity:1;fill:none;fill-opacity:1;stroke:none" />
      <rect
         y="-17.462498"
         x="260.75204"
         height="3.175"
         width="0.5291667"
         id="rect4508"
         style="opacity:1;fill:currentColor;fill-opacity:1;stroke:none"
         transform="matrix(0,1,-1,0,0,0)"
         class="ColorScheme-Text" />
    </g>
    <g
       id="filter">
      <rect
         y="258.89993"
         x="18.520828"
         height="4.2333322"
         width="4.2333336"
         id="rect4527"
         style="opacity:1;fill:none;fill-opacity:1;stroke:none" />
      <rect
         style="opacity:1;fill:none;fill-opacity:1;stroke:none"
         id="rect4529"
         width="3.1750002"
         height="3.1749992"
         x="19.049997"
         y="259.42911" />
      <path
         id="path4545"
         transform="matrix(0.26458333,0,0,0.26458334,-0.52916771,249.37497)"
         d="m 76,38 -1,1 0,1 3,5.259766 L 78,48 l 0,0.002 3,1.996094 0,0.002 1,0 0,-0.539062 L 82,45.25986 85,40 l 0,-1 -1,-1 -8,0 z m 0,1 8,0 0,0.734375 -3,5.263672 0,0.002 0,1 0,2.794922 L 79,47.464844 79,45 79,44.998047 76,39.734375 76,39 Z m 1,1 2,2 0,-1 1,-1 -3,0 z"
         style="fill:currentColor;fill-opacity:1;fill-rule:evenodd;stroke:none;stroke-width:0.26458335px;stroke-linecap:butt;stroke-linejoin:miter;stroke-opacity:1"
         inkscape:connector-curvature="0"
         class="ColorScheme-Text" />
    </g>
    <g
       id="g947">
      <rect
         y="258.89993"
         x="23.283339"
         height="4.2333322"
         width="4.2333336"
         id="rect4253"
         style="opacity:1;fill:none;fill-opacity:1;stroke:none" />
      <rect
         style="opacity:1;fill:none;fill-opacity:1;stroke:none"
         id="rect4255"
         width="3.1750002"
         height="3.1749992"
         x="23.812508"
         y="259.42911" />
      <circle
         r="1.0583333"
         cy="261.0166"
         cx="25.400003"
         id="path4139"
         style="opacity:1;fill:currentColor;fill-opacity:1;stroke:none"
         class="ColorScheme-Background" />
      <path
         inkscape:connector-curvature="0"
         id="path4142"
         d="m 25.400004,259.42911 a 1.5875,1.5875 0 0 0 -1.5875,1.5875 1.5875,1.5875 0 0 0 1.5875,1.5875 1.5875,1.5875 0 0 0 1.5875,-1.5875 1.5875,1.5875 0 0 0 -1.5875,-1.5875 z m -0.606682,0.79375 0.606682,0.60668 0.606681,-0.60668 0.187069,0.18707 -0.606682,0.60668 0.606682,0.60668 -0.187069,0.18707 -0.606681,-0.60668 -0.606682,0.60668 -0.187068,-0.18707 0.606681,-0.60668 -0.606681,-0.60668 0.187068,-0.18707 z"
         style="opacity:1;fill:#da4453;fill-opacity:1;stroke:none" />
    </g>
    <g
       id="rotate"
       transform="translate(-1.3598986,7.8086853)">
      <rect
         y="242.09538"
         x="10.355731"
         height="4.2333331"
         width="4.2333331"
         id="rect1237"
         style="opacity:1;fill:none;fill-opacity:1;fill-rule:nonzero;stroke:none;stroke-width:0.2636669;stroke-linecap:round;stroke-linejoin:round;stroke-miterlimit:4;stroke-dasharray:none;stroke-dashoffset:0;stroke-opacity:1" />
      <g
         transform="matrix(1.2306067,0,0,1.2306067,-2.4653144,-56.253732)"
         id="g1235">
        <path
           style="opacity:1;fill:none;fill-opacity:0.9956522;fill-rule:nonzero;stroke:currentColor;stroke-width:0.27419755;stroke-linecap:round;stroke-linejoin:round;stroke-miterlimit:4;stroke-dasharray:none;stroke-dashoffset:0;stroke-opacity:1"
           class="ColorScheme-Text"
           id="path927"
           sodipodi:type="arc"
           sodipodi:cx="12.276459"
           sodipodi:cy="244.34395"
           sodipodi:rx="1.1858178"
           sodipodi:ry="1.1858178"
           sodipodi:start="0.71282585"
           sodipodi:end="4.712389"
           d="m 13.17,245.1 a 1.186,1.186 0 0 1 -1.44,0.3 1.186,1.186 0 0 1 -0.61,-1.3 1.186,1.186 0 0 1 1.16,-0.9"
           sodipodi:open="true" />
        <path
           sodipodi:type="star"
           style="opacity:1;fill:currentColor;fill-opacity:1;fill-rule:nonzero;stroke:currentColor;stroke-width:0.20340765;stroke-linecap:round;stroke-linejoin:round;stroke-miterlimit:4;stroke-dasharray:none;stroke-dashoffset:0;stroke-opacity:1"
           id="path1231"
           class="ColorScheme-Text"
           sodipodi:sides="3"
           sodipodi:cx="12.811493"
           sodipodi:cy="243.146"
           sodipodi:r1="0.68620211"
           sodipodi:r2="0.34310105"
           sodipodi:arg1="0"
           sodipodi:arg2="1.0471976"
           inkscape:flatsided="false"
           inkscape:rounded="0"
           inkscape:randomized="0"
           d="m 13.5,243.1 -0.52,0.3 -0.51,0.3 v -0.6 -0.5 l 0.51,0.2 z"
           inkscape:transform-center-x="-0.14584623"
           inkscape:transform-center-y="2.9559034e-06"
           transform="matrix(0.85016273,0,0,0.70590853,1.7617699,71.507164)" />
      </g>
    </g>
    <g
       id="menu"
       transform="translate(10.98,5.104)">
      <rect
         y="244.8"
         x="-11.51"
         height="4.233"
         width="4.233"
         id="rect917"
         style="opacity:1;fill:none;fill-opacity:0.1709;stroke:none;stroke-width:1" />
      <rect
         style="opacity:1;fill:currentColor;fill-opacity:1;fill-rule:nonzero;stroke:none;stroke-width:0.1736;stroke-linecap:round;stroke-miterlimit:4;stroke-dasharray:none;stroke-dashoffset:0;stroke-opacity:1"
         class="ColorScheme-Text"
         id="rect919"
         width="1.058"
         height="1.058"
         x="-10.71"
         y="245.5" />
      <rect
         y="245.5"
         x="-9.128"
         height="1.058"
         width="1.058"
         id="rect946"
         class="ColorScheme-Text"
         style="opacity:1;fill:currentColor;fill-opacity:1;fill-rule:nonzero;stroke:none;stroke-width:0.1736;stroke-linecap:round;stroke-miterlimit:4;stroke-dasharray:none;stroke-dashoffset:0;stroke-opacity:1" />
      <rect
         y="247.1"
         x="-9.128"
         height="1.058"
         width="1.058"
         id="rect948"
         class="ColorScheme-Text"
         style="opacity:1;fill:currentColor;fill-opacity:1;fill-rule:nonzero;stroke:none;stroke-width:0.1736;stroke-linecap:round;stroke-miterlimit:4;stroke-dasharray:none;stroke-dashoffset:0;stroke-opacity:1" />
      <rect
         y="247.1"
         x="-10.71"
         height="1.058"
         width="1.058"
         id="rect950"
         class="ColorScheme-Text"
         style="opacity:1;fill:currentColor;fill-opacity:1;fill-rule:nonzero;stroke:none;stroke-width:0.1736;stroke-linecap:round;stroke-miterlimit:4;stroke-dasharray:none;stroke-dashoffset:0;stroke-opacity:1" />
    </g>
    <g
       id="configure"
       transform="translate(1.126,17.7)">
      <rect
         y="232.2"
         x="3.107"
         height="4.233"
         width="4.233"
         id="rect970"
         style="opacity:1;fill:none;fill-opacity:0.3761;fill-rule:evenodd;stroke:none;stroke-width:0.2646;stroke-linecap:square;stroke-linejoin:miter;stroke-miterlimit:4;stroke-dasharray:none;stroke-dashoffset:0;stroke-opacity:1;paint-order:normal" />
      <path
         inkscape:connector-curvature="0"
         id="wrench3"
         class="ColorScheme-Text"
         d="m 5.254,232.9 a 1.202,1.203 0 0 0 -0.44,1.6 1.202,1.203 0 0 0 1.641,0.4 1.202,1.203 0 0 0 0.595,-1.2 l -1.096,0.8 -0.483,-0.9 1.113,-0.6 a 1.202,1.203 0 0 0 -1.33,-0.1 z"
         style="opacity:1;fill:none;fill-opacity:1;fill-rule:evenodd;stroke:currentColor;stroke-width:0.2646;stroke-linecap:square;stroke-linejoin:miter;stroke-miterlimit:4;stroke-dasharray:none;stroke-dashoffset:0;stroke-opacity:1;paint-order:normal" />
      <path
         sodipodi:nodetypes="cc"
         inkscape:connector-curvature="0"
         id="wrench1"
         d="m 5.228,235 -0.951,1"
         class="ColorScheme-Text"
         style="fill:none;fill-rule:evenodd;stroke:currentColor;stroke-width:0.2646;stroke-linecap:round;stroke-linejoin:miter;stroke-miterlimit:4;stroke-dasharray:none;stroke-opacity:1" />
      <path
         sodipodi:nodetypes="cc"
         class="ColorScheme-Text"
         style="fill:none;fill-rule:evenodd;stroke:currentColor;stroke-width:0.2646;stroke-linecap:round;stroke-linejoin:miter;stroke-miterlimit:4;stroke-dasharray:none;stroke-opacity:1"
         d="m 4.704,234.3 -1.285,1.3"
         id="wrench2"
         inkscape:connector-curvature="0" />
    </g>
    <g
       id="size-diagonal-tr2bl"
       transform="translate(12.1,11.17)">
      <rect
         y="238.2"
         x="15.42"
         height="4.234"
         width="4.232"
         id="rect908"
         style="opacity:1;fill:none;fill-opacity:0.2863;fill-rule:evenodd;stroke:none;stroke-width:0.2117;stroke-linecap:round;stroke-linejoin:miter;stroke-miterlimit:4;stroke-dasharray:none;stroke-dashoffset:0;stroke-opacity:1;paint-order:normal" />
      <g
         transform="translate(1.581,-1.273)"
         id="g954">
        <path
           style="fill:none;fill-rule:evenodd;stroke:currentColor;stroke-width:0.2646px;stroke-linecap:butt;stroke-linejoin:miter;stroke-opacity:1"
           d="m 14.77,242.7 2.51,-2.4"
           id="gg3"
           inkscape:connector-curvature="0"
           sodipodi:nodetypes="cc" />
        <path
           transform="matrix(0.7619,-0.7619,0.6325,0.6325,-146.5,96.57)"
           inkscape:transform-center-y="0.0931"
           inkscape:transform-center-x="-0.02119"
           d="m 13.5,243.1 -0.52,0.3 -0.51,0.3 0,-0.6 0,-0.6 0.51,0.3 z"
           inkscape:randomized="0"
           inkscape:rounded="0"
           inkscape:flatsided="false"
           sodipodi:arg2="1.047"
           sodipodi:arg1="0"
           sodipodi:r2="0.3431"
           sodipodi:r1="0.6862"
           sodipodi:cy="243.1"
           sodipodi:cx="12.81"
           sodipodi:sides="3"
           class="ColorScheme-Text"
           id="gg1"
           style="opacity:1;fill:currentColor;fill-opacity:1;fill-rule:nonzero;stroke:currentColor;stroke-width:0.1977;stroke-linecap:round;stroke-linejoin:round;stroke-miterlimit:4;stroke-dasharray:none;stroke-dashoffset:0;stroke-opacity:1"
           sodipodi:type="star" />
        <path
           sodipodi:type="star"
           style="opacity:1;fill:currentColor;fill-opacity:1;fill-rule:nonzero;stroke:currentColor;stroke-width:0.1977;stroke-linecap:round;stroke-linejoin:round;stroke-miterlimit:4;stroke-dasharray:none;stroke-dashoffset:0;stroke-opacity:1"
           id="gg2"
           class="ColorScheme-Text"
           sodipodi:sides="3"
           sodipodi:cx="12.81"
           sodipodi:cy="243.1"
           sodipodi:r1="0.6862"
           sodipodi:r2="0.3431"
           sodipodi:arg1="0"
           sodipodi:arg2="1.047"
           inkscape:flatsided="false"
           inkscape:rounded="0"
           inkscape:randomized="0"
           d="m 13.5,243.1 -0.52,0.3 -0.51,0.3 0,-0.6 0,-0.6 0.51,0.3 z"
           inkscape:transform-center-x="-0.03578"
           inkscape:transform-center-y="-0.08808"
           transform="matrix(-0.7619,0.7619,-0.6325,-0.6325,178.6,386.4)" />
      </g>
    </g>
    <g
       id="close">
      <rect
         style="opacity:1;fill:none;fill-opacity:1;stroke:none"
         id="rect918"
         width="4.233"
         height="4.233"
         x="23.28"
         y="265.6" />
      <rect
         y="266.1"
         x="23.81"
         height="3.175"
         width="3.175"
         id="rect920"
         style="opacity:1;fill:none;fill-opacity:1;stroke:none" />
      <path
         style="opacity:1;fill:#1ffaff;fill-opacity:1;stroke:none"
         d="m 25.4,266.1 a 1.587,1.587 0 0 0 -1.59,1.6 1.587,1.587 0 0 0 1.59,1.6 1.587,1.587 0 0 0 1.59,-1.6 1.587,1.587 0 0 0 -1.59,-1.6 z m -0.61,0.8 0.61,0.6 0.61,-0.6 0.18,0.2 -0.6,0.6 0.6,0.6 -0.18,0.2 -0.61,-0.6 -0.61,0.6 -0.18,-0.2 0.6,-0.6 -0.6,-0.6 z"
         id="path924"
         inkscape:connector-curvature="0" />
      <circle
         class="ColorScheme-Background"
         style="opacity:1;fill:currentColor;fill-opacity:1;stroke:none"
         id="circle922"
         cx="25.4"
         cy="267.7"
         r="1.058" />
    </g>
    <g
       id="delete"
       transform="translate(-1.478,-7.829)">
      <rect
         y="266.2"
         x="5.711"
         height="4.233"
         width="4.234"
         id="rect949"
         style="opacity:1;fill:none;fill-opacity:1;fill-rule:evenodd;stroke:none;stroke-width:0.2646;stroke-linecap:round;stroke-linejoin:miter;stroke-miterlimit:4;stroke-dasharray:none;stroke-dashoffset:0;stroke-opacity:1;paint-order:normal" />
      <circle
         r="1.72"
         cy="268.3"
         cx="7.828"
         id="path951"
         style="opacity:1;fill:none;fill-opacity:1;fill-rule:evenodd;stroke:#da4453;stroke-width:0.2646;stroke-linecap:round;stroke-linejoin:miter;stroke-miterlimit:4;stroke-dasharray:none;stroke-dashoffset:0;stroke-opacity:1;paint-order:normal" />
      <g
         transform="translate(0.025,-0.0835)"
         id="g961">
        <path
           style="fill:none;fill-rule:evenodd;stroke:#da4453;stroke-width:0.2646;stroke-linecap:butt;stroke-linejoin:miter;stroke-miterlimit:4;stroke-dasharray:none;stroke-opacity:1"
           d="M 7.237,267.8 8.369,269"
           id="path955"
           inkscape:connector-curvature="0" />
        <path
           inkscape:connector-curvature="0"
           id="path957"
           d="M 8.369,267.8 7.237,269"
           style="fill:none;fill-rule:evenodd;stroke:#da4453;stroke-width:0.2646;stroke-linecap:butt;stroke-linejoin:miter;stroke-miterlimit:4;stroke-dasharray:none;stroke-opacity:1" />
      </g>
    </g>
  </g>
</svg>
