<?xml version="1.0" encoding="UTF-8" standalone="no"?>
<!-- Created with Inkscape (http://www.inkscape.org/) -->

<svg
   xmlns:dc="http://purl.org/dc/elements/1.1/"
   xmlns:cc="http://creativecommons.org/ns#"
   xmlns:rdf="http://www.w3.org/1999/02/22-rdf-syntax-ns#"
   xmlns:svg="http://www.w3.org/2000/svg"
   xmlns="http://www.w3.org/2000/svg"
   xmlns:sodipodi="http://sodipodi.sourceforge.net/DTD/sodipodi-0.dtd"
   xmlns:inkscape="http://www.inkscape.org/namespaces/inkscape"
   width="134"
   height="62.02"
   viewBox="0 0 35.46 16.41"
   id="svg2"
   version="1.1"
   inkscape:version="0.92.3 (2405546, 2018-03-11)"
   sodipodi:docname="configuration-icons.svg">
  <defs
     id="defs4">
    <style
       id="current-color-scheme"
       type="text/css">
          .ColorScheme-Text {
          }
          .ColorScheme-Background{
          }
          .ColorScheme-Highlight{
          }
          .ColorScheme-ViewText {
          }
          .ColorScheme-ViewBackground{
          }
          .ColorScheme-ViewHover {
          }
          .ColorScheme-ViewFocus{
          }
          .ColorScheme-ButtonText {
          }
          .ColorScheme-ButtonBackground{
          }
          .ColorScheme-ButtonHover {
          }
          .ColorScheme-ButtonFocus{
          }
      </style>
  </defs>
  <sodipodi:namedview
     id="base"
     pagecolor="#ffffff"
     bordercolor="#000000"
     borderopacity="1"
     inkscape:pageopacity="0"
     inkscape:pageshadow="2"
     inkscape:zoom="5.25"
     inkscape:cx="47.17"
     inkscape:cy="29.82"
     inkscape:document-units="px"
     inkscape:current-layer="layer1"
     showgrid="false"
     units="px"
     inkscape:showpageshadow="false"
     borderlayer="false"
     inkscape:window-width="1433"
     inkscape:window-height="816"
     inkscape:window-x="126"
     inkscape:window-y="199"
     inkscape:window-maximized="0"
     fit-margin-top="5"
     fit-margin-left="5"
     fit-margin-right="5"
     fit-margin-bottom="5"
     inkscape:pagecheckerboard="true"
     inkscape:lockguides="false"
     showguides="true"
     inkscape:guide-bbox="true"
     inkscape:snap-global="true"
     inkscape:snap-bbox="true"
     inkscape:bbox-nodes="true"
     inkscape:bbox-paths="true">
    <inkscape:grid
       type="xygrid"
       id="grid4160"
       empspacing="2"
       originx="1.853"
       originy="-32.54" />
  </sodipodi:namedview>
  <metadata
     id="metadata7">
    <rdf:RDF>
      <cc:Work
         rdf:about="">
        <dc:format>image/svg+xml</dc:format>
        <dc:type
           rdf:resource="http://purl.org/dc/dcmitype/StillImage" />
        <dc:title></dc:title>
      </cc:Work>
    </rdf:RDF>
  </metadata>
  <g
     inkscape:label="Capa 1"
     inkscape:groupmode="layer"
     id="layer1"
     transform="translate(1.853,-248.1)">
    <g
       id="move">
      <rect
         style="opacity:1;fill:none;fill-opacity:1;stroke:none"
         id="rect4213"
         width="4.233"
         height="4.233"
         x="13.76"
         y="249.4" />
      <rect
         y="249.9"
         x="14.29"
         height="3.175"
         width="3.175"
         id="rect4215"
         style="opacity:1;fill:none;fill-opacity:1;stroke:none" />
      <path
         id="path4404"
         d="m 15.88,249.9 -0.53,0.8 h 1.05 z m -0.8,1.1 -0.79,0.5 0.79,0.5 z m 1.59,0 v 1 l 0.79,-0.5 z m -0.79,0.2 c -0.15,0 -0.27,0.1 -0.27,0.3 0,0.1 0.12,0.3 0.27,0.3 0.14,0 0.26,-0.2 0.26,-0.3 0,-0.2 -0.12,-0.3 -0.26,-0.3 z m -0.53,1.1 0.53,0.8 0.52,-0.8 z"
         style="fill:currentColor;fill-opacity:1;stroke:none"
         inkscape:connector-curvature="0"
         class="ColorScheme-Text" />
    </g>
    <g
       id="size-vertical">
      <rect
         y="249.4"
         x="18.52"
         height="4.233"
         width="4.233"
         id="rect4257"
         style="opacity:1;fill:none;fill-opacity:1;stroke:none" />
      <rect
         style="opacity:1;fill:none;fill-opacity:1;stroke:none"
         id="rect4259"
         width="3.175"
         height="3.175"
         x="19.05"
         y="249.9" />
      <path
         sodipodi:nodetypes="ccccssssscccc"
         inkscape:connector-curvature="0"
         style="fill:currentColor;fill-opacity:1;stroke:none"
         d="m 20.64,249.9 -0.53,0.8 h 1.06 z m 0,1.3 c -0.15,0 -0.27,0.1 -0.27,0.3 0,0.1 0.12,0.3 0.27,0.3 0.14,0 0.26,-0.2 0.26,-0.3 0,-0.2 -0.12,-0.3 -0.26,-0.3 z m -0.53,1.1 0.53,0.8 0.53,-0.8 z"
         id="path4263"
         class="ColorScheme-Text" />
    </g>
    <g
       id="size-horizontal">
      <rect
         style="opacity:1;fill:none;fill-opacity:1;stroke:none"
         id="rect4265"
         width="4.233"
         height="4.233"
         x="23.28"
         y="249.4" />
      <rect
         y="249.9"
         x="23.81"
         height="3.175"
         width="3.175"
         id="rect4267"
         style="opacity:1;fill:none;fill-opacity:1;stroke:none" />
      <path
         id="path4269"
         d="m 26.99,251.5 -0.8,-0.5 v 1 z m -1.33,0 c 0,-0.2 -0.11,-0.3 -0.26,-0.3 -0.15,0 -0.26,0.1 -0.26,0.3 0,0.1 0.11,0.3 0.26,0.3 0.15,0 0.26,-0.2 0.26,-0.3 z m -1.05,-0.5 -0.8,0.5 0.8,0.5 z"
         style="fill:currentColor;fill-opacity:1;stroke:none"
         inkscape:connector-curvature="0"
         sodipodi:nodetypes="ccccssssscccc"
         class="ColorScheme-Text" />
    </g>
    <g
       id="size-diagonal-tl2br">
      <rect
         style="opacity:1;fill:none;fill-opacity:1;stroke:none"
         id="rect4308"
         width="4.233"
         height="4.233"
         x="-0.5292"
         y="254.1" />
      <rect
         y="254.7"
         x="8.476e-07"
         height="3.175"
         width="3.175"
         id="rect4310"
         style="opacity:1;fill:none;fill-opacity:1;stroke:none" />
      <path
         style="fill:currentColor;fill-opacity:1;stroke:none"
         d="m 2.381,257.8 v -0.2 h 0.607 l -0.871,-0.9 0.187,-0.2 0.871,0.9 v -0.6 H 3.44 v 1 H 3.175 Z"
         id="path4312"
         inkscape:connector-curvature="0"
         class="ColorScheme-Text" />
      <path
         style="fill:currentColor;fill-opacity:1;stroke:none"
         d="m 3.44,254.7 v 0.2 0.3 0.8 0.3 H 3.175 v -0.3 -0.8 -0.3 H 2.91 1.852 1.323 v -0.2 H 1.852 2.91 3.175 Z M 0,256.3 v 0.2 0.8 0.3 H 0.5292 1.323 1.852 v 0.2 H 1.323 0.5292 0 -0.2646 v -0.5 -0.8 -0.2 z"
         id="path4314"
         inkscape:connector-curvature="0"
         class="ColorScheme-Text" />
      <path
         inkscape:connector-curvature="0"
         id="path4316"
         d="m 0.7938,254.7 v 0.2 H 0.1871 L 1.058,255.8 0.8713,256 0,255.1 v 0.6 h -0.2646 v -1 H 0 Z"
         style="fill:currentColor;fill-opacity:1;stroke:none"
         class="ColorScheme-Text" />
    </g>
    <g
       id="maximize">
      <rect
         y="254.1"
         x="4.233"
         height="4.233"
         width="4.233"
         id="rect4318"
         style="opacity:1;fill:none;fill-opacity:1;stroke:none" />
      <rect
         style="opacity:1;fill:none;fill-opacity:1;stroke:none"
         id="rect4320"
         width="3.175"
         height="3.175"
         x="4.763"
         y="254.7" />
      <path
         inkscape:connector-curvature="0"
         id="path4322"
         d="m 7.144,254.7 v 0.2 H 7.75 l -0.871,0.9 0.187,0.2 0.871,-0.9 v 0.6 h 0.265 v -1 H 7.937 Z"
         style="fill:currentColor;fill-opacity:1;stroke:none"
         class="ColorScheme-Text" />
      <path
         id="path4324"
         transform="matrix(0.2646,0,0,0.2646,-0.5292,249.4)"
         d="m 19,20 v 2 3 1 5 1 h 1 5 2 4 1 1 v -1 -1 -3 -1 h -1 v 1 3 1 h -1 -4 -2 -5 v -5 -1 -3 -1 h 2 3 2 v -1 h -2 -3 -2 z"
         style="fill:currentColor;fill-opacity:1;stroke:none"
         inkscape:connector-curvature="0"
         class="ColorScheme-Text" />
    </g>
    <g
       id="unmaximize">
      <rect
         style="opacity:1;fill:none;fill-opacity:1;stroke:none"
         id="rect4333"
         width="4.233"
         height="4.233"
         x="8.996"
         y="254.1" />
      <rect
         y="254.7"
         x="9.525"
         height="3.175"
         width="3.175"
         id="rect4335"
         style="opacity:1;fill:none;fill-opacity:1;stroke:none" />
      <path
         style="fill:currentColor;fill-opacity:1;stroke:none"
         d="m 12.7,256 v -0.3 h -0.61 l 0.87,-0.8 -0.18,-0.2 -0.87,0.8 v -0.6 h -0.27 v 1.1 h 0.27 z"
         id="path4337"
         inkscape:connector-curvature="0"
         class="ColorScheme-Text" />
      <path
         inkscape:connector-curvature="0"
         style="fill:currentColor;fill-opacity:1;stroke:none"
         d="m 9.26,254.7 v 0.5 0.8 0.3 1.3 0.2 h 0.265 1.325 0.53 1.06 0.26 0.26 v -0.2 -0.3 -0.8 -0.2 H 12.7 v 0.2 0.8 0.3 H 12.44 11.38 10.85 9.525 v -1.3 -0.3 -0.8 -0.3 h 0.525 0.8 0.53 v -0.2 h -0.53 -0.8 -0.525 z"
         id="path4339"
         class="ColorScheme-Text" />
    </g>
    <g
       id="status">
      <rect
         y="254.1"
         x="13.76"
         height="4.233"
         width="4.233"
         id="rect4341"
         style="opacity:1;fill:none;fill-opacity:1;stroke:none" />
      <rect
         style="opacity:1;fill:none;fill-opacity:1;stroke:none"
         id="rect4343"
         width="3.175"
         height="3.175"
         x="14.29"
         y="254.7" />
      <g
         inkscape:label="Capa 1"
         id="layer1-70"
         transform="matrix(0.2646,0,0,0.2646,-97.82,113.4)">
        <path
           sodipodi:nodetypes="cccccccccccccccccccccccccccccccc"
           inkscape:connector-curvature="0"
           id="rect4083"
           transform="translate(367.7,513.8)"
           d="m 56,20 v 3 3 1 5 H 57 60.97 68 V 31 21 20 H 63.15 57 Z m 1,3 h 7.35 L 62.63,29.41 60.66,26 H 60.37 57.51 57 Z m 8.38,0 H 67 v 8 H 63.24 Z M 57,27 h 3.08 l 2.31,4 H 57 Z"
           style="fill:currentColor;fill-opacity:1;stroke:none"
           class="ColorScheme-Text" />
      </g>
    </g>
    <g
       id="collapse">
      <rect
         y="254.1"
         x="23.28"
         height="4.233"
         width="4.233"
         id="rect4397"
         style="opacity:1;fill:none;fill-opacity:1;stroke:none" />
      <rect
         style="opacity:1;fill:none;fill-opacity:1;stroke:none"
         id="rect4399"
         width="3.175"
         height="3.175"
         x="23.81"
         y="254.7" />
      <path
         inkscape:connector-curvature="0"
         style="opacity:1;fill:currentColor;fill-opacity:1;stroke:none"
         d="m 24.87,254.7 0.53,0.5 0.53,-0.5 z m -1.06,1.3 v 0.5 h 3.18 V 256 Z m 1.59,1.3 -0.53,0.5 h 1.06 z"
         id="path4401"
         class="ColorScheme-Text" />
    </g>
    <g
       id="return-to-source">
      <rect
         style="opacity:1;fill:none;fill-opacity:1;stroke:none"
         id="rect4380"
         width="4.233"
         height="4.233"
         x="18.52"
         y="254.1" />
      <rect
         y="254.7"
         x="19.05"
         height="3.175"
         width="3.175"
         id="rect4382"
         style="opacity:1;fill:none;fill-opacity:1;stroke:none" />
      <path
         id="rect4403"
         transform="matrix(0.2646,0,0,0.2646,-0.5292,249.4)"
         d="M 74,20 V 32 H 86 V 20 Z m 4,1 h 4 l -2,2 z m -3,4 h 10 v 2 H 75 Z m 5,4 2,2 h -4 z"
         style="opacity:1;fill:currentColor;fill-opacity:1;stroke:none"
         inkscape:connector-curvature="0"
         class="ColorScheme-Text" />
    </g>
    <g
       id="restore">
      <rect
         style="opacity:1;fill:none;fill-opacity:1;stroke:none"
         id="rect4414"
         width="4.233"
         height="4.233"
         x="28.05"
         y="254.1" />
      <rect
         y="254.7"
         x="28.58"
         height="3.175"
         width="3.175"
         id="rect4416"
         style="opacity:1;fill:none;fill-opacity:1;stroke:none" />
      <path
         sodipodi:nodetypes="ccccccccccccc"
         id="path4418"
         d="m 29.63,255.2 0.53,-0.5 0.53,0.5 z m -1.05,0.8 v 0.5 h 3.17 V 256 Z m 1.58,1.8 -0.53,-0.5 h 1.06 z"
         style="opacity:1;fill:currentColor;fill-opacity:1;stroke:none"
         inkscape:connector-curvature="0"
         class="ColorScheme-Text" />
    </g>
    <g
       id="help">
      <rect
         y="258.9"
         x="-0.5292"
         height="4.233"
         width="4.233"
         id="rect4420"
         style="opacity:1;fill:none;fill-opacity:1;stroke:none" />
      <rect
         style="opacity:1;fill:none;fill-opacity:1;stroke:none"
         id="rect4422"
         width="3.175"
         height="3.175"
         x="8.476e-07"
         y="259.4" />
      <path
         inkscape:connector-curvature="0"
         style="opacity:1;fill:currentColor;fill-opacity:1;stroke:none;stroke-opacity:1"
         d="M 1.588,259.4 A 1.587,1.588 0 0 0 0,261 1.587,1.588 0 0 0 1.588,262.6 1.587,1.588 0 0 0 3.175,261 1.587,1.588 0 0 0 1.588,259.4 Z M 0,259.7 v 0.5 l 0.5292,-0.5 z m 1.588,0 a 1.323,1.323 0 0 1 0.632,0.2 l -0.403,0.4 a 0.7937,0.7938 0 0 0 -0.229,-0.1 0.7937,0.7938 0 0 0 -0.23,0.1 l -0.402,-0.4 a 1.323,1.323 0 0 1 0.632,-0.2 z m 1.058,0 0.529,0.5 v -0.5 z m -2.2202,0.7 0.4026,0.4 a 0.7937,0.7938 0 0 0 -0.035,0.2 0.7937,0.7938 0 0 0 0.035,0.2 l -0.4016,0.4 A 1.323,1.323 0 0 1 0.2646,261 1.323,1.323 0 0 1 0.4258,260.4 Z m 2.3222,0 a 1.323,1.323 0 0 1 0.162,0.6 1.323,1.323 0 0 1 -0.161,0.6 l -0.402,-0.4 a 0.7937,0.7938 0 0 0 0.03,-0.2 0.7937,0.7938 0 0 0 -0.03,-0.2 z m -1.16,0.1 a 0.5292,0.5292 0 0 1 0.529,0.5 0.5292,0.5292 0 0 1 -0.529,0.5 0.5292,0.5292 0 0 1 -0.53,-0.5 0.5292,0.5292 0 0 1 0.53,-0.5 z m -0.23,1.3 a 0.7937,0.7938 0 0 0 0.23,0 0.7937,0.7938 0 0 0 0.229,0 l 0.402,0.4 a 1.323,1.323 0 0 1 -0.631,0.1 1.323,1.323 0 0 1 -0.633,-0.1 z M 0,261.8 v 0.5 h 0.5292 z m 3.175,0 -0.529,0.5 h 0.529 z"
         id="path59"
         class="ColorScheme-Text" />
    </g>
    <g
       id="add">
      <rect
         y="258.9"
         x="8.996"
         height="4.233"
         width="4.233"
         id="rect4488"
         style="opacity:1;fill:none;fill-opacity:1;stroke:none" />
      <rect
         style="opacity:1;fill:none;fill-opacity:1;stroke:none"
         id="rect4490"
         width="3.175"
         height="3.175"
         x="9.525"
         y="259.4" />
      <path
         style="opacity:1;fill:currentColor;fill-opacity:1;stroke:none"
         d="m 43,38 v 5 h -5 v 2 h 5 v 5 h 2 v -5 h 5 v -2 h -5 v -5 z"
         transform="matrix(0.2646,0,0,0.2646,-0.5292,249.4)"
         id="rect4498"
         class="ColorScheme-Text"
         inkscape:connector-curvature="0" />
    </g>
    <g
       id="remove">
      <rect
         style="opacity:1;fill:none;fill-opacity:1;stroke:none"
         id="rect4502"
         width="4.233"
         height="4.233"
         x="13.76"
         y="258.9" />
      <rect
         y="259.4"
         x="14.29"
         height="3.175"
         width="3.175"
         id="rect4504"
         style="opacity:1;fill:none;fill-opacity:1;stroke:none" />
      <rect
         y="-17.46"
         x="260.8"
         height="3.175"
         width="0.5292"
         id="rect4508"
         style="opacity:1;fill:currentColor;fill-opacity:1;stroke:none"
         transform="rotate(90)"
         class="ColorScheme-Text" />
    </g>
    <g
       id="filter">
      <rect
         y="258.9"
         x="18.52"
         height="4.233"
         width="4.233"
         id="rect4527"
         style="opacity:1;fill:none;fill-opacity:1;stroke:none" />
      <rect
         style="opacity:1;fill:none;fill-opacity:1;stroke:none"
         id="rect4529"
         width="3.175"
         height="3.175"
         x="19.05"
         y="259.4" />
      <path
         id="path4545"
         transform="matrix(0.2646,0,0,0.2646,-0.5292,249.4)"
         d="m 76,38 -1,1 v 1 l 3,5.26 V 48 48 l 3,2 v 0 h 1 v -0.54 -4.2 L 85,40 v -1 l -1,-1 z m 0,1 h 8 v 0.73 L 81,45 v 0 1 2.79 L 79,47.46 V 45 45 l -3,-5.27 z m 1,1 2,2 v -1 l 1,-1 z"
         style="fill:currentColor;fill-opacity:1;fill-rule:evenodd;stroke:none;stroke-width:0.2646px;stroke-linecap:butt;stroke-linejoin:miter;stroke-opacity:1"
         inkscape:connector-curvature="0"
         class="ColorScheme-Text" />
    </g>
    <g
       id="g947">
      <rect
         y="258.9"
         x="23.28"
         height="4.233"
         width="4.233"
         id="rect4253"
         style="opacity:1;fill:none;fill-opacity:1;stroke:none" />
      <rect
         style="opacity:1;fill:none;fill-opacity:1;stroke:none"
         id="rect4255"
         width="3.175"
         height="3.175"
         x="23.81"
         y="259.4" />
      <circle
         r="1.058"
         cy="261"
         cx="25.4"
         id="path4139"
         style="opacity:1;fill:currentColor;fill-opacity:1;stroke:none"
         class="ColorScheme-Background" />
      <path
         inkscape:connector-curvature="0"
         id="path4142"
         d="m 25.4,259.4 a 1.587,1.587 0 0 0 -1.59,1.6 1.587,1.587 0 0 0 1.59,1.6 1.587,1.587 0 0 0 1.59,-1.6 1.587,1.587 0 0 0 -1.59,-1.6 z m -0.61,0.8 0.61,0.6 0.61,-0.6 0.18,0.2 -0.6,0.6 0.6,0.6 -0.18,0.2 -0.61,-0.6 -0.61,0.6 -0.18,-0.2 0.6,-0.6 -0.6,-0.6 z"
         style="opacity:1;fill:#da4453;fill-opacity:1;stroke:none" />
    </g>
    <g
       id="rotate"
       transform="translate(-1.36,7.809)">
      <rect
         y="242.1"
         x="10.36"
         height="4.233"
         width="4.233"
         id="rect1237"
         style="opacity:1;fill:none;fill-opacity:1;fill-rule:nonzero;stroke:none;stroke-width:0.2637;stroke-linecap:round;stroke-linejoin:round;stroke-miterlimit:4;stroke-dasharray:none;stroke-dashoffset:0;stroke-opacity:1" />
      <g
         transform="matrix(1.231,0,0,1.231,-2.465,-56.25)"
         id="g1235">
        <path
           style="opacity:1;fill:none;fill-opacity:0.9957;fill-rule:nonzero;stroke:currentColor;stroke-width:0.2742;stroke-linecap:round;stroke-linejoin:round;stroke-miterlimit:4;stroke-dasharray:none;stroke-dashoffset:0;stroke-opacity:1"
           class="ColorScheme-Text"
           id="path927"
           sodipodi:type="arc"
           sodipodi:cx="12.28"
           sodipodi:cy="244.3"
           sodipodi:rx="1.186"
           sodipodi:ry="1.186"
           sodipodi:start="0.7128"
           sodipodi:end="4.712"
           d="m 13.18,245.1 a 1.186,1.186 0 0 1 -1.44,0.3 1.186,1.186 0 0 1 -0.61,-1.4 1.186,1.186 0 0 1 1.15,-0.9"
           sodipodi:open="true" />
        <path
           sodipodi:type="star"
           style="opacity:1;fill:currentColor;fill-opacity:1;fill-rule:nonzero;stroke:currentColor;stroke-width:0.2034;stroke-linecap:round;stroke-linejoin:round;stroke-miterlimit:4;stroke-dasharray:none;stroke-dashoffset:0;stroke-opacity:1"
           id="path1231"
           class="ColorScheme-Text"
           sodipodi:sides="3"
           sodipodi:cx="12.81"
           sodipodi:cy="243.1"
           sodipodi:r1="0.6862"
           sodipodi:r2="0.3431"
           sodipodi:arg1="0"
           sodipodi:arg2="1.047"
           inkscape:flatsided="false"
           inkscape:rounded="0"
           inkscape:randomized="0"
           d="m 13.5,243.1 -0.52,0.3 -0.51,0.3 0,-0.6 0,-0.6 0.51,0.3 z"
           inkscape:transform-center-x="-0.1458"
           inkscape:transform-center-y="2.956e-06"
           transform="matrix(0.8502,0,0,0.7059,1.762,71.51)" />
      </g>
    </g>
    <g
       id="menu"
       transform="translate(10.98,5.104)">
      <rect
         y="244.8"
         x="-11.51"
         height="4.233"
         width="4.233"
         id="rect917"
         style="opacity:1;fill:none;fill-opacity:0.1709;stroke:none;stroke-width:1" />
      <rect
         style="opacity:1;fill:currentColor;fill-opacity:1;fill-rule:nonzero;stroke:none;stroke-width:0.1736;stroke-linecap:round;stroke-miterlimit:4;stroke-dasharray:none;stroke-dashoffset:0;stroke-opacity:1"
         class="ColorScheme-Text"
         id="rect919"
         width="1.058"
         height="1.058"
         x="-10.71"
         y="245.5" />
      <rect
         y="245.5"
         x="-9.128"
         height="1.058"
         width="1.058"
         id="rect946"
         class="ColorScheme-Text"
         style="opacity:1;fill:currentColor;fill-opacity:1;fill-rule:nonzero;stroke:none;stroke-width:0.1736;stroke-linecap:round;stroke-miterlimit:4;stroke-dasharray:none;stroke-dashoffset:0;stroke-opacity:1" />
      <rect
         y="247.1"
         x="-9.128"
         height="1.058"
         width="1.058"
         id="rect948"
         class="ColorScheme-Text"
         style="opacity:1;fill:currentColor;fill-opacity:1;fill-rule:nonzero;stroke:none;stroke-width:0.1736;stroke-linecap:round;stroke-miterlimit:4;stroke-dasharray:none;stroke-dashoffset:0;stroke-opacity:1" />
      <rect
         y="247.1"
         x="-10.71"
         height="1.058"
         width="1.058"
         id="rect950"
         class="ColorScheme-Text"
         style="opacity:1;fill:currentColor;fill-opacity:1;fill-rule:nonzero;stroke:none;stroke-width:0.1736;stroke-linecap:round;stroke-miterlimit:4;stroke-dasharray:none;stroke-dashoffset:0;stroke-opacity:1" />
    </g>
    <g
       id="configure"
       transform="translate(1.126,17.7)">
      <rect
         y="232.2"
         x="3.107"
         height="4.233"
         width="4.233"
         id="rect970"
         style="opacity:1;fill:none;fill-opacity:0.3761;fill-rule:evenodd;stroke:none;stroke-width:0.2646;stroke-linecap:square;stroke-linejoin:miter;stroke-miterlimit:4;stroke-dasharray:none;stroke-dashoffset:0;stroke-opacity:1;paint-order:normal" />
      <path
         inkscape:connector-curvature="0"
         id="wrench3"
         class="ColorScheme-Text"
         d="m 5.254,232.9 a 1.202,1.203 0 0 0 -0.44,1.6 1.202,1.203 0 0 0 1.641,0.4 1.202,1.203 0 0 0 0.595,-1.2 l -1.096,0.8 -0.483,-0.9 1.113,-0.6 a 1.202,1.203 0 0 0 -1.33,-0.1 z"
         style="opacity:1;fill:none;fill-opacity:1;fill-rule:evenodd;stroke:currentColor;stroke-width:0.2646;stroke-linecap:square;stroke-linejoin:miter;stroke-miterlimit:4;stroke-dasharray:none;stroke-dashoffset:0;stroke-opacity:1;paint-order:normal" />
      <path
         sodipodi:nodetypes="cc"
         inkscape:connector-curvature="0"
         id="wrench1"
         d="m 5.228,235 -0.951,1"
         class="ColorScheme-Text"
         style="fill:none;fill-rule:evenodd;stroke:currentColor;stroke-width:0.2646;stroke-linecap:round;stroke-linejoin:miter;stroke-miterlimit:4;stroke-dasharray:none;stroke-opacity:1" />
      <path
         sodipodi:nodetypes="cc"
         class="ColorScheme-Text"
         style="fill:none;fill-rule:evenodd;stroke:currentColor;stroke-width:0.2646;stroke-linecap:round;stroke-linejoin:miter;stroke-miterlimit:4;stroke-dasharray:none;stroke-opacity:1"
         d="m 4.704,234.3 -1.285,1.3"
         id="wrench2"
         inkscape:connector-curvature="0" />
    </g>
    <g
       id="size-diagonal-tr2bl"
       transform="translate(12.1,11.17)">
      <rect
         y="238.2"
         x="15.42"
         height="4.234"
         width="4.232"
         id="rect908"
         style="opacity:1;fill:none;fill-opacity:0.2863;fill-rule:evenodd;stroke:none;stroke-width:0.2117;stroke-linecap:round;stroke-linejoin:miter;stroke-miterlimit:4;stroke-dasharray:none;stroke-dashoffset:0;stroke-opacity:1;paint-order:normal" />
      <g
         transform="translate(1.581,-1.273)"
         id="g954">
        <path
           style="fill:none;fill-rule:evenodd;stroke:currentColor;stroke-width:0.2646px;stroke-linecap:butt;stroke-linejoin:miter;stroke-opacity:1"
           d="m 14.77,242.7 2.51,-2.4"
           id="gg3"
           inkscape:connector-curvature="0"
           sodipodi:nodetypes="cc" />
        <path
           transform="matrix(0.7619,-0.7619,0.6325,0.6325,-146.5,96.57)"
           inkscape:transform-center-y="0.0931"
           inkscape:transform-center-x="-0.02119"
           d="m 13.5,243.1 -0.52,0.3 -0.51,0.3 0,-0.6 0,-0.6 0.51,0.3 z"
           inkscape:randomized="0"
           inkscape:rounded="0"
           inkscape:flatsided="false"
           sodipodi:arg2="1.047"
           sodipodi:arg1="0"
           sodipodi:r2="0.3431"
           sodipodi:r1="0.6862"
           sodipodi:cy="243.1"
           sodipodi:cx="12.81"
           sodipodi:sides="3"
           class="ColorScheme-Text"
           id="gg1"
           style="opacity:1;fill:currentColor;fill-opacity:1;fill-rule:nonzero;stroke:currentColor;stroke-width:0.1977;stroke-linecap:round;stroke-linejoin:round;stroke-miterlimit:4;stroke-dasharray:none;stroke-dashoffset:0;stroke-opacity:1"
           sodipodi:type="star" />
        <path
           sodipodi:type="star"
           style="opacity:1;fill:currentColor;fill-opacity:1;fill-rule:nonzero;stroke:currentColor;stroke-width:0.1977;stroke-linecap:round;stroke-linejoin:round;stroke-miterlimit:4;stroke-dasharray:none;stroke-dashoffset:0;stroke-opacity:1"
           id="gg2"
           class="ColorScheme-Text"
           sodipodi:sides="3"
           sodipodi:cx="12.81"
           sodipodi:cy="243.1"
           sodipodi:r1="0.6862"
           sodipodi:r2="0.3431"
           sodipodi:arg1="0"
           sodipodi:arg2="1.047"
           inkscape:flatsided="false"
           inkscape:rounded="0"
           inkscape:randomized="0"
           d="m 13.5,243.1 -0.52,0.3 -0.51,0.3 0,-0.6 0,-0.6 0.51,0.3 z"
           inkscape:transform-center-x="-0.03578"
           inkscape:transform-center-y="-0.08808"
           transform="matrix(-0.7619,0.7619,-0.6325,-0.6325,178.6,386.4)" />
      </g>
    </g>
    <g
       id="close"
       transform="translate(4.237,-6.7)">
      <rect
         style="opacity:1;fill:none;fill-opacity:1;stroke:none"
         id="rect918"
         width="4.233"
         height="4.233"
         x="23.28"
         y="265.6" />
      <rect
         y="266.1"
         x="23.81"
         height="3.175"
         width="3.175"
         id="rect920"
         style="opacity:1;fill:none;fill-opacity:1;stroke:none" />
      <path
         style="opacity:1;fill:#1ffaff;fill-opacity:1;stroke:none"
         d="m 25.4,266.1 a 1.587,1.587 0 0 0 -1.59,1.6 1.587,1.587 0 0 0 1.59,1.6 1.587,1.587 0 0 0 1.59,-1.6 1.587,1.587 0 0 0 -1.59,-1.6 z m -0.61,0.8 0.61,0.6 0.61,-0.6 0.18,0.2 -0.6,0.6 0.6,0.6 -0.18,0.2 -0.61,-0.6 -0.61,0.6 -0.18,-0.2 0.6,-0.6 -0.6,-0.6 z"
         id="path924"
         inkscape:connector-curvature="0" />
      <circle
         class="ColorScheme-Background"
         style="opacity:1;fill:currentColor;fill-opacity:1;stroke:none"
         id="circle922"
         cx="25.4"
         cy="267.7"
         r="1.058" />
    </g>
    <g
       id="delete"
       transform="translate(-1.478,-7.829)">
      <rect
         y="266.2"
         x="5.711"
         height="4.233"
         width="4.234"
         id="rect949"
         style="opacity:1;fill:none;fill-opacity:1;fill-rule:evenodd;stroke:none;stroke-width:0.2646;stroke-linecap:round;stroke-linejoin:miter;stroke-miterlimit:4;stroke-dasharray:none;stroke-dashoffset:0;stroke-opacity:1;paint-order:normal" />
      <circle
         r="1.72"
         cy="268.3"
         cx="7.828"
         id="path951"
         style="opacity:1;fill:none;fill-opacity:1;fill-rule:evenodd;stroke:#da4453;stroke-width:0.2646;stroke-linecap:round;stroke-linejoin:miter;stroke-miterlimit:4;stroke-dasharray:none;stroke-dashoffset:0;stroke-opacity:1;paint-order:normal" />
      <g
         transform="translate(0.025,-0.0835)"
         id="g961">
        <path
           style="fill:none;fill-rule:evenodd;stroke:#da4453;stroke-width:0.2646;stroke-linecap:butt;stroke-linejoin:miter;stroke-miterlimit:4;stroke-dasharray:none;stroke-opacity:1"
           d="M 7.237,267.8 8.369,269"
           id="path955"
           inkscape:connector-curvature="0" />
        <path
           inkscape:connector-curvature="0"
           id="path957"
           d="M 8.369,267.8 7.237,269"
           style="fill:none;fill-rule:evenodd;stroke:#da4453;stroke-width:0.2646;stroke-linecap:butt;stroke-linejoin:miter;stroke-miterlimit:4;stroke-dasharray:none;stroke-opacity:1" />
      </g>
    </g>
  </g>
</svg>
