<?xml version="1.0" encoding="UTF-8" standalone="no"?>
<!-- Created with Inkscape (http://www.inkscape.org/) -->

<svg
   xmlns:dc="http://purl.org/dc/elements/1.1/"
   xmlns:cc="http://creativecommons.org/ns#"
   xmlns:rdf="http://www.w3.org/1999/02/22-rdf-syntax-ns#"
   xmlns:svg="http://www.w3.org/2000/svg"
   xmlns="http://www.w3.org/2000/svg"
   xmlns:sodipodi="http://sodipodi.sourceforge.net/DTD/sodipodi-0.dtd"
   xmlns:inkscape="http://www.inkscape.org/namespaces/inkscape"
   viewBox="0 0 140.3 44.45"
   sodipodi:docname="tabbar.svg"
   inkscape:version="0.92.3 (2405546, 2018-03-11)"
   width="140.2"
   height="44.45"
   version="1.1"
   id="svg2">
  <sodipodi:namedview
     inkscape:window-maximized="0"
     inkscape:window-y="60"
     inkscape:window-x="54"
     fit-margin-bottom="10"
     fit-margin-right="10"
     fit-margin-left="10"
     fit-margin-top="10"
     inkscape:current-layer="svg2"
     inkscape:cy="-1.956"
     inkscape:cx="73.91"
     inkscape:zoom="6.686"
     showgrid="false"
     id="namedview99"
     inkscape:document-units="px"
     inkscape:window-height="876"
     inkscape:window-width="1657"
     inkscape:pageshadow="2"
     inkscape:pageopacity="0"
     guidetolerance="10"
     gridtolerance="10"
     objecttolerance="10"
     borderopacity="1"
     bordercolor="#666666"
     pagecolor="#353535"
     inkscape:pagecheckerboard="true"
     inkscape:showpageshadow="false" />
  <defs
     id="defs4">
    <style
       id="current-color-scheme"
       type="text/css">
      .ColorScheme-Text {
        color:#31363b;
      }
      .ColorScheme-Background{
        color:#eff0f1;
      }
      .ColorScheme-ViewText {
        color:#31363b;
      }
      .ColorScheme-ViewBackground{

      }
      .ColorScheme-ViewHover {

      }
      .ColorScheme-ViewFocus{

      }
      .ColorScheme-ButtonText {
        color:#31363b;
      }
      .ColorScheme-ButtonBackground{
        color:#eff0f1;
      }
      .ColorScheme-ButtonHover {

      }
      .ColorScheme-ButtonFocus{

      }</style>
  </defs>
  <metadata
     id="metadata7">
    <rdf:RDF>
      <cc:Work
         rdf:about="">
        <dc:format>image/svg+xml</dc:format>
        <dc:type
           rdf:resource="http://purl.org/dc/dcmitype/StillImage" />
        <dc:title />
      </cc:Work>
    </rdf:RDF>
  </metadata>
  <rect
     style="opacity:1;fill:#f5fbb7;fill-opacity:1;fill-rule:evenodd;stroke:none;stroke-width:1.9087;stroke-linecap:square;stroke-linejoin:miter;stroke-miterlimit:4;stroke-dasharray:none;stroke-dashoffset:0;stroke-opacity:1;paint-order:normal"
     id="hint-stretch-borders"
     width="4.004"
     height="4.003"
     x="32.28"
     y="2.795" />
  <rect
     y="23.57"
     x="12.79"
     height="8.007"
     width="8.006"
     id="north-active-tab-center"
     style="opacity:1;fill:#d2d6dc;fill-opacity:1;fill-rule:evenodd;stroke:none;stroke-width:1.9085;stroke-linecap:square;stroke-linejoin:miter;stroke-miterlimit:4;stroke-dasharray:none;stroke-dashoffset:0;stroke-opacity:1;paint-order:normal" />
  <g
     transform="matrix(1.001,0,0,1.001,-25.95,-144.7)"
     id="north-active-tab-right">
    <path
       id="rect933-6"
       d="m 51.68,168.1 v 8 h 3 v -8 z"
       style="opacity:1;fill:#bfc5cd;fill-opacity:1;fill-rule:evenodd;stroke:none;stroke-width:0.2665;stroke-linecap:square;stroke-linejoin:miter;stroke-miterlimit:4;stroke-dasharray:none;stroke-dashoffset:0;stroke-opacity:0.8271;paint-order:normal"
       inkscape:connector-curvature="0" />
    <rect
       y="168.1"
       x="46.7"
       height="8"
       width="7"
       id="rect4203"
       style="opacity:1;fill:#d2d6dc;fill-opacity:1;fill-rule:evenodd;stroke:none;stroke-width:1.9072;stroke-linecap:square;stroke-linejoin:miter;stroke-miterlimit:4;stroke-dasharray:none;stroke-dashoffset:0;stroke-opacity:1;paint-order:normal" />
  </g>
  <g
     transform="matrix(1.001,0,0,1.001,-35.1,-132)"
     id="north-active-tab-topright">
    <path
       inkscape:connector-curvature="0"
       style="opacity:1;fill:#bfc5cd;fill-opacity:1;fill-rule:evenodd;stroke:none;stroke-width:0.2663;stroke-linecap:square;stroke-linejoin:miter;stroke-miterlimit:4;stroke-dasharray:none;stroke-dashoffset:0;stroke-opacity:0.8271;paint-order:normal"
       d="m 211.3,40.9 v 3 c 3.2,0 5,1.9 5,5 h 3 c 0,-4.9 -3,-8 -8,-8 z"
       transform="translate(-155.5,106.4)"
       id="path1184" />
    <path
       inkscape:connector-curvature="0"
       id="path1188"
       d="m 55.82,148.4 v 7 h 7 c 0,-4.4 -2.52,-7 -7,-7 z"
       style="opacity:1;fill:#d2d6dc;fill-opacity:1;fill-rule:evenodd;stroke:none;stroke-width:0.2666;stroke-linecap:square;stroke-linejoin:miter;stroke-miterlimit:4;stroke-dasharray:none;stroke-dashoffset:0;stroke-opacity:0.8271;paint-order:normal" />
  </g>
  <g
     id="north-active-tab-left"
     transform="matrix(-1.001,0,0,1.001,59.51,-144.7)">
    <path
       inkscape:connector-curvature="0"
       style="opacity:1;fill:#bfc5cd;fill-opacity:1;fill-rule:evenodd;stroke:none;stroke-width:0.2665;stroke-linecap:square;stroke-linejoin:miter;stroke-miterlimit:4;stroke-dasharray:none;stroke-dashoffset:0;stroke-opacity:0.8271;paint-order:normal"
       d="m 51.68,168.1 v 8 h 3 v -8 z"
       id="path2340" />
    <rect
       style="opacity:1;fill:#d2d6dc;fill-opacity:1;fill-rule:evenodd;stroke:none;stroke-width:1.9072;stroke-linecap:square;stroke-linejoin:miter;stroke-miterlimit:4;stroke-dasharray:none;stroke-dashoffset:0;stroke-opacity:1;paint-order:normal"
       id="rect2342"
       width="7"
       height="8"
       x="46.7"
       y="168.1" />
  </g>
  <g
     id="north-active-tab-top"
     transform="matrix(0,-1.001,1.001,0,-155.5,70.28)">
    <path
       inkscape:connector-curvature="0"
       style="opacity:1;fill:#bfc5cd;fill-opacity:1;fill-rule:evenodd;stroke:none;stroke-width:0.2665;stroke-linecap:square;stroke-linejoin:miter;stroke-miterlimit:4;stroke-dasharray:none;stroke-dashoffset:0;stroke-opacity:0.8271;paint-order:normal"
       d="m 51.68,168.1 v 8 h 3 v -8 z"
       id="path2346" />
    <rect
       style="opacity:1;fill:#d2d6dc;fill-opacity:1;fill-rule:evenodd;stroke:none;stroke-width:1.9072;stroke-linecap:square;stroke-linejoin:miter;stroke-miterlimit:4;stroke-dasharray:none;stroke-dashoffset:0;stroke-opacity:1;paint-order:normal"
       id="rect2348"
       width="7"
       height="8"
       x="46.7"
       y="168.1" />
  </g>
  <g
     id="north-active-tab-bottom"
     transform="matrix(0,1.001,-1.001,0,189,-15.17)">
    <path
       inkscape:connector-curvature="0"
       style="opacity:1;fill:#bfc5cd;fill-opacity:1;fill-rule:evenodd;stroke:none;stroke-width:0.2665;stroke-linecap:square;stroke-linejoin:miter;stroke-miterlimit:4;stroke-dasharray:none;stroke-dashoffset:0;stroke-opacity:0.8271;paint-order:normal"
       d="m 51.68,168.1 v 8 h 3 v -8 z"
       id="path2352" />
    <rect
       style="opacity:1;fill:#d2d6dc;fill-opacity:1;fill-rule:evenodd;stroke:none;stroke-width:1.9072;stroke-linecap:square;stroke-linejoin:miter;stroke-miterlimit:4;stroke-dasharray:none;stroke-dashoffset:0;stroke-opacity:1;paint-order:normal"
       id="rect2354"
       width="7"
       height="8"
       x="46.7"
       y="168.1" />
  </g>
  <g
     id="north-active-tab-topleft"
     transform="matrix(-1.001,0,0,1.001,68.62,-131.9)">
    <path
       id="path2358"
       transform="translate(-155.5,106.4)"
       d="m 211.3,40.9 v 3 c 3.2,0 5,1.9 5,5 h 3 c 0,-4.9 -3,-8 -8,-8 z"
       style="opacity:1;fill:#bfc5cd;fill-opacity:1;fill-rule:evenodd;stroke:none;stroke-width:0.2663;stroke-linecap:square;stroke-linejoin:miter;stroke-miterlimit:4;stroke-dasharray:none;stroke-dashoffset:0;stroke-opacity:0.8271;paint-order:normal"
       inkscape:connector-curvature="0" />
    <path
       style="opacity:1;fill:#d2d6dc;fill-opacity:1;fill-rule:evenodd;stroke:none;stroke-width:0.2666;stroke-linecap:square;stroke-linejoin:miter;stroke-miterlimit:4;stroke-dasharray:none;stroke-dashoffset:0;stroke-opacity:0.8271;paint-order:normal"
       d="m 55.82,148.4 v 7 h 7 c 0,-4.4 -2.52,-7 -7,-7 z"
       id="path2360"
       inkscape:connector-curvature="0" />
  </g>
  <g
     id="north-active-tab-bottomright"
     transform="matrix(1.001,0,0,-1.001,-35.12,187.1)">
    <path
       id="path2364"
       transform="translate(-155.5,106.4)"
       d="m 211.3,40.9 v 3 c 3.2,0 5,1.9 5,5 h 3 c 0,-4.9 -3,-8 -8,-8 z"
       style="opacity:1;fill:#bfc5cd;fill-opacity:1;fill-rule:evenodd;stroke:none;stroke-width:0.2663;stroke-linecap:square;stroke-linejoin:miter;stroke-miterlimit:4;stroke-dasharray:none;stroke-dashoffset:0;stroke-opacity:0.8271;paint-order:normal"
       inkscape:connector-curvature="0" />
    <path
       style="opacity:1;fill:#d2d6dc;fill-opacity:1;fill-rule:evenodd;stroke:none;stroke-width:0.2666;stroke-linecap:square;stroke-linejoin:miter;stroke-miterlimit:4;stroke-dasharray:none;stroke-dashoffset:0;stroke-opacity:0.8271;paint-order:normal"
       d="m 55.82,148.4 v 7 h 7 c 0,-4.4 -2.52,-7 -7,-7 z"
       id="path2366"
       inkscape:connector-curvature="0" />
  </g>
  <g
     id="north-active-tab-bottomleft"
     transform="matrix(-1.001,0,0,-1.001,68.58,187.1)">
    <path
       id="path2370"
       transform="translate(-155.5,106.4)"
       d="m 211.3,40.9 v 3 c 3.2,0 5,1.9 5,5 h 3 c 0,-4.9 -3,-8 -8,-8 z"
       style="opacity:1;fill:#bfc5cd;fill-opacity:1;fill-rule:evenodd;stroke:none;stroke-width:0.2663;stroke-linecap:square;stroke-linejoin:miter;stroke-miterlimit:4;stroke-dasharray:none;stroke-dashoffset:0;stroke-opacity:0.8271;paint-order:normal"
       inkscape:connector-curvature="0" />
    <path
       style="opacity:1;fill:#d2d6dc;fill-opacity:1;fill-rule:evenodd;stroke:none;stroke-width:0.2666;stroke-linecap:square;stroke-linejoin:miter;stroke-miterlimit:4;stroke-dasharray:none;stroke-dashoffset:0;stroke-opacity:0.8271;paint-order:normal"
       d="m 55.82,148.4 v 7 h 7 c 0,-4.4 -2.52,-7 -7,-7 z"
       id="path2372"
       inkscape:connector-curvature="0" />
  </g>
  <rect
     style="opacity:1;fill:#d2d6dc;fill-opacity:1;fill-rule:evenodd;stroke:none;stroke-width:1.9085;stroke-linecap:square;stroke-linejoin:miter;stroke-miterlimit:4;stroke-dasharray:none;stroke-dashoffset:0;stroke-opacity:1;paint-order:normal"
     id="south-active-tab-center"
     width="8.006"
     height="8.007"
     x="49.16"
     y="24.02" />
  <g
     id="south-active-tab-right"
     transform="matrix(1.001,0,0,1.001,10.42,-144.3)">
    <path
       inkscape:connector-curvature="0"
       style="opacity:1;fill:#bfc5cd;fill-opacity:1;fill-rule:evenodd;stroke:none;stroke-width:0.2665;stroke-linecap:square;stroke-linejoin:miter;stroke-miterlimit:4;stroke-dasharray:none;stroke-dashoffset:0;stroke-opacity:0.8271;paint-order:normal"
       d="m 51.68,168.1 v 8 h 3 v -8 z"
       id="path2378" />
    <rect
       style="opacity:1;fill:#d2d6dc;fill-opacity:1;fill-rule:evenodd;stroke:none;stroke-width:1.9072;stroke-linecap:square;stroke-linejoin:miter;stroke-miterlimit:4;stroke-dasharray:none;stroke-dashoffset:0;stroke-opacity:1;paint-order:normal"
       id="rect2380"
       width="7"
       height="8"
       x="46.7"
       y="168.1" />
  </g>
  <g
     id="south-active-tab-topright"
     transform="matrix(1.001,0,0,1.001,1.271,-131.6)">
    <path
       id="path2384"
       transform="translate(-155.5,106.4)"
       d="m 211.3,40.9 v 3 c 3.2,0 5,1.9 5,5 h 3 c 0,-4.9 -3,-8 -8,-8 z"
       style="opacity:1;fill:#bfc5cd;fill-opacity:1;fill-rule:evenodd;stroke:none;stroke-width:0.2663;stroke-linecap:square;stroke-linejoin:miter;stroke-miterlimit:4;stroke-dasharray:none;stroke-dashoffset:0;stroke-opacity:0.8271;paint-order:normal"
       inkscape:connector-curvature="0" />
    <path
       style="opacity:1;fill:#d2d6dc;fill-opacity:1;fill-rule:evenodd;stroke:none;stroke-width:0.2666;stroke-linecap:square;stroke-linejoin:miter;stroke-miterlimit:4;stroke-dasharray:none;stroke-dashoffset:0;stroke-opacity:0.8271;paint-order:normal"
       d="m 55.82,148.4 v 7 h 7 c 0,-4.4 -2.52,-7 -7,-7 z"
       id="path2386"
       inkscape:connector-curvature="0" />
  </g>
  <g
     transform="matrix(-1.001,0,0,1.001,95.88,-144.3)"
     id="south-active-tab-left">
    <path
       id="path2390"
       d="m 51.68,168.1 v 8 h 3 v -8 z"
       style="opacity:1;fill:#bfc5cd;fill-opacity:1;fill-rule:evenodd;stroke:none;stroke-width:0.2665;stroke-linecap:square;stroke-linejoin:miter;stroke-miterlimit:4;stroke-dasharray:none;stroke-dashoffset:0;stroke-opacity:0.8271;paint-order:normal"
       inkscape:connector-curvature="0" />
    <rect
       y="168.1"
       x="46.7"
       height="8"
       width="7"
       id="rect2392"
       style="opacity:1;fill:#d2d6dc;fill-opacity:1;fill-rule:evenodd;stroke:none;stroke-width:1.9072;stroke-linecap:square;stroke-linejoin:miter;stroke-miterlimit:4;stroke-dasharray:none;stroke-dashoffset:0;stroke-opacity:1;paint-order:normal" />
  </g>
  <g
     transform="matrix(0,-1.001,1.001,0,-119.1,70.73)"
     id="south-active-tab-top">
    <path
       id="path2396"
       d="m 51.68,168.1 v 8 h 3 v -8 z"
       style="opacity:1;fill:#bfc5cd;fill-opacity:1;fill-rule:evenodd;stroke:none;stroke-width:0.2665;stroke-linecap:square;stroke-linejoin:miter;stroke-miterlimit:4;stroke-dasharray:none;stroke-dashoffset:0;stroke-opacity:0.8271;paint-order:normal"
       inkscape:connector-curvature="0" />
    <rect
       y="168.1"
       x="46.7"
       height="8"
       width="7"
       id="rect2398"
       style="opacity:1;fill:#d2d6dc;fill-opacity:1;fill-rule:evenodd;stroke:none;stroke-width:1.9072;stroke-linecap:square;stroke-linejoin:miter;stroke-miterlimit:4;stroke-dasharray:none;stroke-dashoffset:0;stroke-opacity:1;paint-order:normal" />
  </g>
  <g
     transform="matrix(0,1.001,-1.001,0,225.4,-14.72)"
     id="south-active-tab-bottom">
    <path
       id="path2402"
       d="m 51.68,168.1 v 8 h 3 v -8 z"
       style="opacity:1;fill:#bfc5cd;fill-opacity:1;fill-rule:evenodd;stroke:none;stroke-width:0.2665;stroke-linecap:square;stroke-linejoin:miter;stroke-miterlimit:4;stroke-dasharray:none;stroke-dashoffset:0;stroke-opacity:0.8271;paint-order:normal"
       inkscape:connector-curvature="0" />
    <rect
       y="168.1"
       x="46.7"
       height="8"
       width="7"
       id="rect2404"
       style="opacity:1;fill:#d2d6dc;fill-opacity:1;fill-rule:evenodd;stroke:none;stroke-width:1.9072;stroke-linecap:square;stroke-linejoin:miter;stroke-miterlimit:4;stroke-dasharray:none;stroke-dashoffset:0;stroke-opacity:1;paint-order:normal" />
  </g>
  <g
     transform="matrix(-1.001,0,0,1.001,105,-131.5)"
     id="south-active-tab-topleft">
    <path
       inkscape:connector-curvature="0"
       style="opacity:1;fill:#bfc5cd;fill-opacity:1;fill-rule:evenodd;stroke:none;stroke-width:0.2663;stroke-linecap:square;stroke-linejoin:miter;stroke-miterlimit:4;stroke-dasharray:none;stroke-dashoffset:0;stroke-opacity:0.8271;paint-order:normal"
       d="m 211.3,40.9 v 3 c 3.2,0 5,1.9 5,5 h 3 c 0,-4.9 -3,-8 -8,-8 z"
       transform="translate(-155.5,106.4)"
       id="path2408" />
    <path
       inkscape:connector-curvature="0"
       id="path2410"
       d="m 55.82,148.4 v 7 h 7 c 0,-4.4 -2.52,-7 -7,-7 z"
       style="opacity:1;fill:#d2d6dc;fill-opacity:1;fill-rule:evenodd;stroke:none;stroke-width:0.2666;stroke-linecap:square;stroke-linejoin:miter;stroke-miterlimit:4;stroke-dasharray:none;stroke-dashoffset:0;stroke-opacity:0.8271;paint-order:normal" />
  </g>
  <g
     transform="matrix(1.001,0,0,-1.001,1.251,187.5)"
     id="south-active-tab-bottomright">
    <path
       inkscape:connector-curvature="0"
       style="opacity:1;fill:#bfc5cd;fill-opacity:1;fill-rule:evenodd;stroke:none;stroke-width:0.2663;stroke-linecap:square;stroke-linejoin:miter;stroke-miterlimit:4;stroke-dasharray:none;stroke-dashoffset:0;stroke-opacity:0.8271;paint-order:normal"
       d="m 211.3,40.9 v 3 c 3.2,0 5,1.9 5,5 h 3 c 0,-4.9 -3,-8 -8,-8 z"
       transform="translate(-155.5,106.4)"
       id="path2414" />
    <path
       inkscape:connector-curvature="0"
       id="path2416"
       d="m 55.82,148.4 v 7 h 7 c 0,-4.4 -2.52,-7 -7,-7 z"
       style="opacity:1;fill:#d2d6dc;fill-opacity:1;fill-rule:evenodd;stroke:none;stroke-width:0.2666;stroke-linecap:square;stroke-linejoin:miter;stroke-miterlimit:4;stroke-dasharray:none;stroke-dashoffset:0;stroke-opacity:0.8271;paint-order:normal" />
  </g>
  <g
     transform="matrix(-1.001,0,0,-1.001,105,187.5)"
     id="south-active-tab-bottomleft">
    <path
       inkscape:connector-curvature="0"
       style="opacity:1;fill:#bfc5cd;fill-opacity:1;fill-rule:evenodd;stroke:none;stroke-width:0.2663;stroke-linecap:square;stroke-linejoin:miter;stroke-miterlimit:4;stroke-dasharray:none;stroke-dashoffset:0;stroke-opacity:0.8271;paint-order:normal"
       d="m 211.3,40.9 v 3 c 3.2,0 5,1.9 5,5 h 3 c 0,-4.9 -3,-8 -8,-8 z"
       transform="translate(-155.5,106.4)"
       id="path2420" />
    <path
       inkscape:connector-curvature="0"
       id="path2422"
       d="m 55.82,148.4 v 7 h 7 c 0,-4.4 -2.52,-7 -7,-7 z"
       style="opacity:1;fill:#d2d6dc;fill-opacity:1;fill-rule:evenodd;stroke:none;stroke-width:0.2666;stroke-linecap:square;stroke-linejoin:miter;stroke-miterlimit:4;stroke-dasharray:none;stroke-dashoffset:0;stroke-opacity:0.8271;paint-order:normal" />
  </g>
  <rect
     style="opacity:1;fill:#d2d6dc;fill-opacity:1;fill-rule:evenodd;stroke:none;stroke-width:1.9085;stroke-linecap:square;stroke-linejoin:miter;stroke-miterlimit:4;stroke-dasharray:none;stroke-dashoffset:0;stroke-opacity:1;paint-order:normal"
     id="west-active-tab-center"
     width="8.006"
     height="8.007"
     x="85.68"
     y="23.42" />
  <g
     id="west-active-tab-right"
     transform="matrix(1.001,0,0,1.001,46.94,-144.8)">
    <path
       inkscape:connector-curvature="0"
       style="opacity:1;fill:#bfc5cd;fill-opacity:1;fill-rule:evenodd;stroke:none;stroke-width:0.2665;stroke-linecap:square;stroke-linejoin:miter;stroke-miterlimit:4;stroke-dasharray:none;stroke-dashoffset:0;stroke-opacity:0.8271;paint-order:normal"
       d="m 51.68,168.1 v 8 h 3 v -8 z"
       id="path2538" />
    <rect
       style="opacity:1;fill:#d2d6dc;fill-opacity:1;fill-rule:evenodd;stroke:none;stroke-width:1.9072;stroke-linecap:square;stroke-linejoin:miter;stroke-miterlimit:4;stroke-dasharray:none;stroke-dashoffset:0;stroke-opacity:1;paint-order:normal"
       id="rect2540"
       width="7"
       height="8"
       x="46.7"
       y="168.1" />
  </g>
  <g
     id="west-active-tab-topright"
     transform="matrix(1.001,0,0,1.001,37.79,-132.1)">
    <path
       id="path2544"
       transform="translate(-155.5,106.4)"
       d="m 211.3,40.9 v 3 c 3.2,0 5,1.9 5,5 h 3 c 0,-4.9 -3,-8 -8,-8 z"
       style="opacity:1;fill:#bfc5cd;fill-opacity:1;fill-rule:evenodd;stroke:none;stroke-width:0.2663;stroke-linecap:square;stroke-linejoin:miter;stroke-miterlimit:4;stroke-dasharray:none;stroke-dashoffset:0;stroke-opacity:0.8271;paint-order:normal"
       inkscape:connector-curvature="0" />
    <path
       style="opacity:1;fill:#d2d6dc;fill-opacity:1;fill-rule:evenodd;stroke:none;stroke-width:0.2666;stroke-linecap:square;stroke-linejoin:miter;stroke-miterlimit:4;stroke-dasharray:none;stroke-dashoffset:0;stroke-opacity:0.8271;paint-order:normal"
       d="m 55.82,148.4 v 7 h 7 c 0,-4.4 -2.52,-7 -7,-7 z"
       id="path2546"
       inkscape:connector-curvature="0" />
  </g>
  <g
     transform="matrix(-1.001,0,0,1.001,132.4,-144.8)"
     id="west-active-tab-left">
    <path
       id="path2550"
       d="m 51.68,168.1 v 8 h 3 v -8 z"
       style="opacity:1;fill:#bfc5cd;fill-opacity:1;fill-rule:evenodd;stroke:none;stroke-width:0.2665;stroke-linecap:square;stroke-linejoin:miter;stroke-miterlimit:4;stroke-dasharray:none;stroke-dashoffset:0;stroke-opacity:0.8271;paint-order:normal"
       inkscape:connector-curvature="0" />
    <rect
       y="168.1"
       x="46.7"
       height="8"
       width="7"
       id="rect2552"
       style="opacity:1;fill:#d2d6dc;fill-opacity:1;fill-rule:evenodd;stroke:none;stroke-width:1.9072;stroke-linecap:square;stroke-linejoin:miter;stroke-miterlimit:4;stroke-dasharray:none;stroke-dashoffset:0;stroke-opacity:1;paint-order:normal" />
  </g>
  <g
     transform="matrix(0,-1.001,1.001,0,-82.61,70.13)"
     id="west-active-tab-top">
    <path
       id="path2556"
       d="m 51.68,168.1 v 8 h 3 v -8 z"
       style="opacity:1;fill:#bfc5cd;fill-opacity:1;fill-rule:evenodd;stroke:none;stroke-width:0.2665;stroke-linecap:square;stroke-linejoin:miter;stroke-miterlimit:4;stroke-dasharray:none;stroke-dashoffset:0;stroke-opacity:0.8271;paint-order:normal"
       inkscape:connector-curvature="0" />
    <rect
       y="168.1"
       x="46.7"
       height="8"
       width="7"
       id="rect2558"
       style="opacity:1;fill:#d2d6dc;fill-opacity:1;fill-rule:evenodd;stroke:none;stroke-width:1.9072;stroke-linecap:square;stroke-linejoin:miter;stroke-miterlimit:4;stroke-dasharray:none;stroke-dashoffset:0;stroke-opacity:1;paint-order:normal" />
  </g>
  <g
     transform="matrix(0,1.001,-1.001,0,261.9,-15.32)"
     id="west-active-tab-bottom">
    <path
       id="path2562"
       d="m 51.68,168.1 v 8 h 3 v -8 z"
       style="opacity:1;fill:#bfc5cd;fill-opacity:1;fill-rule:evenodd;stroke:none;stroke-width:0.2665;stroke-linecap:square;stroke-linejoin:miter;stroke-miterlimit:4;stroke-dasharray:none;stroke-dashoffset:0;stroke-opacity:0.8271;paint-order:normal"
       inkscape:connector-curvature="0" />
    <rect
       y="168.1"
       x="46.7"
       height="8"
       width="7"
       id="rect2564"
       style="opacity:1;fill:#d2d6dc;fill-opacity:1;fill-rule:evenodd;stroke:none;stroke-width:1.9072;stroke-linecap:square;stroke-linejoin:miter;stroke-miterlimit:4;stroke-dasharray:none;stroke-dashoffset:0;stroke-opacity:1;paint-order:normal" />
  </g>
  <g
     transform="matrix(-1.001,0,0,1.001,141.5,-132)"
     id="west-active-tab-topleft">
    <path
       inkscape:connector-curvature="0"
       style="opacity:1;fill:#bfc5cd;fill-opacity:1;fill-rule:evenodd;stroke:none;stroke-width:0.2663;stroke-linecap:square;stroke-linejoin:miter;stroke-miterlimit:4;stroke-dasharray:none;stroke-dashoffset:0;stroke-opacity:0.8271;paint-order:normal"
       d="m 211.3,40.9 v 3 c 3.2,0 5,1.9 5,5 h 3 c 0,-4.9 -3,-8 -8,-8 z"
       transform="translate(-155.5,106.4)"
       id="path2568" />
    <path
       inkscape:connector-curvature="0"
       id="path2570"
       d="m 55.82,148.4 v 7 h 7 c 0,-4.4 -2.52,-7 -7,-7 z"
       style="opacity:1;fill:#d2d6dc;fill-opacity:1;fill-rule:evenodd;stroke:none;stroke-width:0.2666;stroke-linecap:square;stroke-linejoin:miter;stroke-miterlimit:4;stroke-dasharray:none;stroke-dashoffset:0;stroke-opacity:0.8271;paint-order:normal" />
  </g>
  <g
     transform="matrix(1.001,0,0,-1.001,37.77,187)"
     id="west-active-tab-bottomright">
    <path
       inkscape:connector-curvature="0"
       style="opacity:1;fill:#bfc5cd;fill-opacity:1;fill-rule:evenodd;stroke:none;stroke-width:0.2663;stroke-linecap:square;stroke-linejoin:miter;stroke-miterlimit:4;stroke-dasharray:none;stroke-dashoffset:0;stroke-opacity:0.8271;paint-order:normal"
       d="m 211.3,40.9 v 3 c 3.2,0 5,1.9 5,5 h 3 c 0,-4.9 -3,-8 -8,-8 z"
       transform="translate(-155.5,106.4)"
       id="path2574" />
    <path
       inkscape:connector-curvature="0"
       id="path2576"
       d="m 55.82,148.4 v 7 h 7 c 0,-4.4 -2.52,-7 -7,-7 z"
       style="opacity:1;fill:#d2d6dc;fill-opacity:1;fill-rule:evenodd;stroke:none;stroke-width:0.2666;stroke-linecap:square;stroke-linejoin:miter;stroke-miterlimit:4;stroke-dasharray:none;stroke-dashoffset:0;stroke-opacity:0.8271;paint-order:normal" />
  </g>
  <g
     transform="matrix(-1.001,0,0,-1.001,141.5,187)"
     id="west-active-tab-bottomleft">
    <path
       inkscape:connector-curvature="0"
       style="opacity:1;fill:#bfc5cd;fill-opacity:1;fill-rule:evenodd;stroke:none;stroke-width:0.2663;stroke-linecap:square;stroke-linejoin:miter;stroke-miterlimit:4;stroke-dasharray:none;stroke-dashoffset:0;stroke-opacity:0.8271;paint-order:normal"
       d="m 211.3,40.9 v 3 c 3.2,0 5,1.9 5,5 h 3 c 0,-4.9 -3,-8 -8,-8 z"
       transform="translate(-155.5,106.4)"
       id="path2580" />
    <path
       inkscape:connector-curvature="0"
       id="path2582"
       d="m 55.82,148.4 v 7 h 7 c 0,-4.4 -2.52,-7 -7,-7 z"
       style="opacity:1;fill:#d2d6dc;fill-opacity:1;fill-rule:evenodd;stroke:none;stroke-width:0.2666;stroke-linecap:square;stroke-linejoin:miter;stroke-miterlimit:4;stroke-dasharray:none;stroke-dashoffset:0;stroke-opacity:0.8271;paint-order:normal" />
  </g>
  <rect
     style="opacity:1;fill:#d2d6dc;fill-opacity:1;fill-rule:evenodd;stroke:none;stroke-width:1.9085;stroke-linecap:square;stroke-linejoin:miter;stroke-miterlimit:4;stroke-dasharray:none;stroke-dashoffset:0;stroke-opacity:1;paint-order:normal"
     id="east-active-tab-center"
     width="8.006"
     height="8.007"
     x="120.3"
     y="23.72" />
  <g
     id="east-active-tab-right"
     transform="matrix(1.001,0,0,1.001,81.52,-144.6)">
    <path
       inkscape:connector-curvature="0"
       style="opacity:1;fill:#bfc5cd;fill-opacity:1;fill-rule:evenodd;stroke:none;stroke-width:0.2665;stroke-linecap:square;stroke-linejoin:miter;stroke-miterlimit:4;stroke-dasharray:none;stroke-dashoffset:0;stroke-opacity:0.8271;paint-order:normal"
       d="m 51.68,168.1 v 8 h 3 v -8 z"
       id="path2748" />
    <rect
       style="opacity:1;fill:#d2d6dc;fill-opacity:1;fill-rule:evenodd;stroke:none;stroke-width:1.9072;stroke-linecap:square;stroke-linejoin:miter;stroke-miterlimit:4;stroke-dasharray:none;stroke-dashoffset:0;stroke-opacity:1;paint-order:normal"
       id="rect2750"
       width="7"
       height="8"
       x="46.7"
       y="168.1" />
  </g>
  <g
     id="east-active-tab-topright"
     transform="matrix(1.001,0,0,1.001,72.37,-131.9)">
    <path
       id="path2754"
       transform="translate(-155.5,106.4)"
       d="m 211.3,40.9 v 3 c 3.2,0 5,1.9 5,5 h 3 c 0,-4.9 -3,-8 -8,-8 z"
       style="opacity:1;fill:#bfc5cd;fill-opacity:1;fill-rule:evenodd;stroke:none;stroke-width:0.2663;stroke-linecap:square;stroke-linejoin:miter;stroke-miterlimit:4;stroke-dasharray:none;stroke-dashoffset:0;stroke-opacity:0.8271;paint-order:normal"
       inkscape:connector-curvature="0" />
    <path
       style="opacity:1;fill:#d2d6dc;fill-opacity:1;fill-rule:evenodd;stroke:none;stroke-width:0.2666;stroke-linecap:square;stroke-linejoin:miter;stroke-miterlimit:4;stroke-dasharray:none;stroke-dashoffset:0;stroke-opacity:0.8271;paint-order:normal"
       d="m 55.82,148.4 v 7 h 7 c 0,-4.4 -2.52,-7 -7,-7 z"
       id="path2756"
       inkscape:connector-curvature="0" />
  </g>
  <g
     transform="matrix(-1.001,0,0,1.001,167,-144.6)"
     id="east-active-tab-left">
    <path
       id="path2760"
       d="m 51.68,168.1 v 8 h 3 v -8 z"
       style="opacity:1;fill:#bfc5cd;fill-opacity:1;fill-rule:evenodd;stroke:none;stroke-width:0.2665;stroke-linecap:square;stroke-linejoin:miter;stroke-miterlimit:4;stroke-dasharray:none;stroke-dashoffset:0;stroke-opacity:0.8271;paint-order:normal"
       inkscape:connector-curvature="0" />
    <rect
       y="168.1"
       x="46.7"
       height="8"
       width="7"
       id="rect2762"
       style="opacity:1;fill:#d2d6dc;fill-opacity:1;fill-rule:evenodd;stroke:none;stroke-width:1.9072;stroke-linecap:square;stroke-linejoin:miter;stroke-miterlimit:4;stroke-dasharray:none;stroke-dashoffset:0;stroke-opacity:1;paint-order:normal" />
  </g>
  <g
     transform="matrix(0,-1.001,1.001,0,-48.03,70.43)"
     id="east-active-tab-top">
    <path
       id="path2766"
       d="m 51.68,168.1 v 8 h 3 v -8 z"
       style="opacity:1;fill:#bfc5cd;fill-opacity:1;fill-rule:evenodd;stroke:none;stroke-width:0.2665;stroke-linecap:square;stroke-linejoin:miter;stroke-miterlimit:4;stroke-dasharray:none;stroke-dashoffset:0;stroke-opacity:0.8271;paint-order:normal"
       inkscape:connector-curvature="0" />
    <rect
       y="168.1"
       x="46.7"
       height="8"
       width="7"
       id="rect2768"
       style="opacity:1;fill:#d2d6dc;fill-opacity:1;fill-rule:evenodd;stroke:none;stroke-width:1.9072;stroke-linecap:square;stroke-linejoin:miter;stroke-miterlimit:4;stroke-dasharray:none;stroke-dashoffset:0;stroke-opacity:1;paint-order:normal" />
  </g>
  <g
     transform="matrix(0,1.001,-1.001,0,296.5,-15.02)"
     id="east-active-tab-bottom">
    <path
       id="path2772"
       d="m 51.68,168.1 v 8 h 3 v -8 z"
       style="opacity:1;fill:#bfc5cd;fill-opacity:1;fill-rule:evenodd;stroke:none;stroke-width:0.2665;stroke-linecap:square;stroke-linejoin:miter;stroke-miterlimit:4;stroke-dasharray:none;stroke-dashoffset:0;stroke-opacity:0.8271;paint-order:normal"
       inkscape:connector-curvature="0" />
    <rect
       y="168.1"
       x="46.7"
       height="8"
       width="7"
       id="rect2774"
       style="opacity:1;fill:#d2d6dc;fill-opacity:1;fill-rule:evenodd;stroke:none;stroke-width:1.9072;stroke-linecap:square;stroke-linejoin:miter;stroke-miterlimit:4;stroke-dasharray:none;stroke-dashoffset:0;stroke-opacity:1;paint-order:normal" />
  </g>
  <g
     transform="matrix(-1.001,0,0,1.001,176.1,-131.8)"
     id="east-active-tab-topleft">
    <path
       inkscape:connector-curvature="0"
       style="opacity:1;fill:#bfc5cd;fill-opacity:1;fill-rule:evenodd;stroke:none;stroke-width:0.2663;stroke-linecap:square;stroke-linejoin:miter;stroke-miterlimit:4;stroke-dasharray:none;stroke-dashoffset:0;stroke-opacity:0.8271;paint-order:normal"
       d="m 211.3,40.9 v 3 c 3.2,0 5,1.9 5,5 h 3 c 0,-4.9 -3,-8 -8,-8 z"
       transform="translate(-155.5,106.4)"
       id="path2778" />
    <path
       inkscape:connector-curvature="0"
       id="path2780"
       d="m 55.82,148.4 v 7 h 7 c 0,-4.4 -2.52,-7 -7,-7 z"
       style="opacity:1;fill:#d2d6dc;fill-opacity:1;fill-rule:evenodd;stroke:none;stroke-width:0.2666;stroke-linecap:square;stroke-linejoin:miter;stroke-miterlimit:4;stroke-dasharray:none;stroke-dashoffset:0;stroke-opacity:0.8271;paint-order:normal" />
  </g>
  <g
     transform="matrix(1.001,0,0,-1.001,72.35,187.2)"
     id="east-active-tab-bottomright">
    <path
       inkscape:connector-curvature="0"
       style="opacity:1;fill:#bfc5cd;fill-opacity:1;fill-rule:evenodd;stroke:none;stroke-width:0.2663;stroke-linecap:square;stroke-linejoin:miter;stroke-miterlimit:4;stroke-dasharray:none;stroke-dashoffset:0;stroke-opacity:0.8271;paint-order:normal"
       d="m 211.3,40.9 v 3 c 3.2,0 5,1.9 5,5 h 3 c 0,-4.9 -3,-8 -8,-8 z"
       transform="translate(-155.5,106.4)"
       id="path2784" />
    <path
       inkscape:connector-curvature="0"
       id="path2786"
       d="m 55.82,148.4 v 7 h 7 c 0,-4.4 -2.52,-7 -7,-7 z"
       style="opacity:1;fill:#d2d6dc;fill-opacity:1;fill-rule:evenodd;stroke:none;stroke-width:0.2666;stroke-linecap:square;stroke-linejoin:miter;stroke-miterlimit:4;stroke-dasharray:none;stroke-dashoffset:0;stroke-opacity:0.8271;paint-order:normal" />
  </g>
  <g
     transform="matrix(-1.001,0,0,-1.001,176,187.2)"
     id="east-active-tab-bottomleft">
    <path
       inkscape:connector-curvature="0"
       style="opacity:1;fill:#bfc5cd;fill-opacity:1;fill-rule:evenodd;stroke:none;stroke-width:0.2663;stroke-linecap:square;stroke-linejoin:miter;stroke-miterlimit:4;stroke-dasharray:none;stroke-dashoffset:0;stroke-opacity:0.8271;paint-order:normal"
       d="m 211.3,40.9 v 3 c 3.2,0 5,1.9 5,5 h 3 c 0,-4.9 -3,-8 -8,-8 z"
       transform="translate(-155.5,106.4)"
       id="path2790" />
    <path
       inkscape:connector-curvature="0"
       id="path2792"
       d="m 55.82,148.4 v 7 h 7 c 0,-4.4 -2.52,-7 -7,-7 z"
       style="opacity:1;fill:#d2d6dc;fill-opacity:1;fill-rule:evenodd;stroke:none;stroke-width:0.2666;stroke-linecap:square;stroke-linejoin:miter;stroke-miterlimit:4;stroke-dasharray:none;stroke-dashoffset:0;stroke-opacity:0.8271;paint-order:normal" />
  </g>
</svg>
